
<svg viewBox="0 0 800 500" xmlns="http://www.w3.org/2000/svg">
  <defs>
    <!-- Deep elegant gradient matching the 2nd & 3rd inspirations -->
    <linearGradient id="bgGradient" x1="0%" y1="0%" x2="0%" y2="100%">
      <stop offset="0%" stop-color="#FF8A3D" />
      <stop offset="60%" stop-color="#DE5D1A" />
      <stop offset="100%" stop-color="#9E3500" />
    </linearGradient>
    <radialGradient id="glowHighlight" cx="50%" cy="30%" r="60%">
      <stop offset="0%" stop-color="rgba(255, 255, 255, 0.2)" />
      <stop offset="100%" stop-color="rgba(255, 255, 255, 0)" />
    </radialGradient>
  </defs>
  
  <rect width="100%" height="100%" fill="url(#bgGradient)"/>
  <rect width="100%" height="100%" fill="url(#glowHighlight)"/>
  
  <g transform="translate(400, 250)" stroke="#FFF6F2" fill="none" stroke-width="1.5" stroke-linecap="round" stroke-linejoin="round">
    
    <!-- Complex filtration network -->
    <path d="M-100,-40 L-40,0 L-100,40 M-80,-40 L-20,0 L-80,40 M-60,-40 L0,0 L-60,40" stroke-width="1" opacity="0.5"/>
    <!-- Central processing core -->
    <rect x="-20" y="-30" width="40" height="60" rx="4" stroke-width="2"/>
    <line x1="-10" y1="-15" x2="10" y2="-15" stroke-width="1.5"/>
    <line x1="-10" y1="0" x2="10" y2="0" stroke-width="1.5"/>
    <line x1="-10" y1="15" x2="10" y2="15" stroke-width="1.5"/>
    <!-- Output fine data streams -->
    <path d="M20,0 C50,0 50,-60 100,-60 M20,0 C50,0 50,0 100,0 M20,0 C50,0 50,60 100,60" stroke-width="1.5"/>
    <circle cx="100" cy="-60" r="3" fill="#FFF6F2"/> <circle cx="100" cy="0" r="3" fill="#FFF6F2"/> <circle cx="100" cy="60" r="3" fill="#FFF6F2"/>
    <!-- Sub-tracks -->
    <path d="M60,-30 L100,-30 M60,30 L100,30" stroke-dasharray="3 3"/>
  
  </g>
</svg>
