
<svg viewBox="0 0 800 500" xmlns="http://www.w3.org/2000/svg">
  <defs>
    <!-- Deep elegant gradient matching the 2nd & 3rd inspirations -->
    <linearGradient id="bgGradient" x1="0%" y1="0%" x2="0%" y2="100%">
      <stop offset="0%" stop-color="#FF8A3D" />
      <stop offset="60%" stop-color="#DE5D1A" />
      <stop offset="100%" stop-color="#9E3500" />
    </linearGradient>
    <radialGradient id="glowHighlight" cx="50%" cy="30%" r="60%">
      <stop offset="0%" stop-color="rgba(255, 255, 255, 0.2)" />
      <stop offset="100%" stop-color="rgba(255, 255, 255, 0)" />
    </radialGradient>
  </defs>
  
  <rect width="100%" height="100%" fill="url(#bgGradient)"/>
  <rect width="100%" height="100%" fill="url(#glowHighlight)"/>
  
  <g transform="translate(400, 250)" stroke="#FFF6F2" fill="none" stroke-width="1.5" stroke-linecap="round" stroke-linejoin="round">
    
    <!-- Architectural Funnel/Pipeline -->
    <path d="M-80,-80 L80,-80 L40,-20 L40,60 L-40,60 L-40,-20 Z" stroke-width="1.5" stroke-dasharray="2 4" opacity="0.4"/>
    <path d="M-60,-80 L60,-80 L30,-20 L30,40 L-30,40 L-30,-20 Z" stroke-width="2" opacity="0.6"/>
    
    <!-- Filtering mechanism / AI Gatekeeper -->
    <line x1="-50" y1="-20" x2="50" y2="-20" stroke-width="1.5" stroke-dasharray="4 2"/>
    <line x1="-40" y1="10" x2="40" y2="10" stroke-width="1.5" stroke-dasharray="4 2"/>
    
    <!-- Nodes entering the funnel -->
    <circle cx="-40" cy="-60" r="2" fill="#FFF6F2"/> <circle cx="0" cy="-50" r="4" fill="#FFF6F2"/> <circle cx="50" cy="-60" r="2" fill="#FFF6F2"/> <circle cx="-20" cy="-70" r="3" fill="#FFF6F2"/>
    
    <!-- High-value intent captured at the bottom -->
    <path d="M-10,40 L0,55 L10,40 Z" fill="#FFF6F2" opacity="0.9" stroke="none"/>
    <circle cx="0" cy="75" r="5" fill="#FFF6F2"/>
    <circle cx="0" cy="75" r="12" fill="#FFF6F2"/>
    
    <!-- Technical connection lines outside -->
    <polyline points="-120,-40 -80,-40 -60,-20" stroke-width="1" opacity="0.5"/>
    <polyline points="120,0 60,0 40,20" stroke-width="1" opacity="0.5"/>
  
  </g>
</svg>
