
<svg viewBox="0 0 800 500" xmlns="http://www.w3.org/2000/svg">
  <defs>
    <!-- Deep elegant gradient matching the 2nd & 3rd inspirations -->
    <linearGradient id="bgGradient" x1="0%" y1="0%" x2="0%" y2="100%">
      <stop offset="0%" stop-color="#FF8A3D" />
      <stop offset="60%" stop-color="#DE5D1A" />
      <stop offset="100%" stop-color="#9E3500" />
    </linearGradient>
    <radialGradient id="glowHighlight" cx="50%" cy="30%" r="60%">
      <stop offset="0%" stop-color="rgba(255, 255, 255, 0.2)" />
      <stop offset="100%" stop-color="rgba(255, 255, 255, 0)" />
    </radialGradient>
  </defs>
  
  <rect width="100%" height="100%" fill="url(#bgGradient)"/>
  <rect width="100%" height="100%" fill="url(#glowHighlight)"/>
  
  <g transform="translate(400, 250)" stroke="#FFF6F2" fill="none" stroke-width="1.5" stroke-linecap="round" stroke-linejoin="round">
    
    <!-- Split environment / Dual Funnels comparing B2B vs B2C -->
    <!-- Center divider line -->
    <line x1="0" y1="-80" x2="0" y2="80" stroke-width="1.5" stroke-dasharray="4 4" opacity="0.4" />
    <text x="-50" y="-70" fill="#FFF6F2" font-family="Arial" font-size="10" font-weight="bold" opacity="0.8" text-anchor="middle">B2B</text>
    <text x="50" y="-70" fill="#FFF6F2" font-family="Arial" font-size="10" font-weight="bold" opacity="0.8" text-anchor="middle">B2C</text>

    <!-- LEFT SIDE: B2B (Deep, complex, high-value, filtering) -->
    <!-- Deep Funnel -->
    <path d="M-90,-50 L-10,-50 L-40,20 L-60,20 Z" fill="none" stroke-width="2" opacity="0.7"/>
    <!-- Complex stakeholder nodes entering slowly -->
    <circle cx="-50" cy="-60" r="4" fill="none" stroke-width="1.5"/>
    <circle cx="-30" cy="-60" r="3" fill="#FFF6F2"/>
    <circle cx="-70" cy="-60" r="3" fill="#FFF6F2"/>
    <polyline points="-70,-60 -50,-60 -30,-60" fill="none" stroke-width="1" opacity="0.5"/>
    <!-- Multi-stage approval lines inside funnel -->
    <line x1="-75" y1="-25" x2="-25" y2="-25" stroke-width="1" opacity="0.4"/>
    <line x1="-65" y1="0" x2="-35" y2="0" stroke-width="1" stroke-dasharray="2 2" opacity="0.4"/>
    <!-- Heavy payload outcome -->
    <rect x="-60" y="40" width="20" height="20" rx="3" fill="none" stroke-width="2"/>
    <circle cx="-50" cy="50" r="4" fill="#FFF6F2"/>

    <!-- RIGHT SIDE: B2C (Wide, shallow, high-volume, rapid flow) -->
    <!-- Shallow Funnel -->
    <path d="M10,-50 L90,-50 L65,-10 L35,-10 Z" fill="none" stroke-width="1.5" stroke-dasharray="2 2" opacity="0.6"/>
    <!-- High volume of small individual nodes raining down -->
    <circle cx="20" cy="-65" r="1.5" fill="#FFF6F2"/> <circle cx="35" cy="-75" r="2" fill="#FFF6F2"/> <circle cx="50" cy="-60" r="1.5" fill="#FFF6F2"/> <circle cx="65" cy="-70" r="2" fill="#FFF6F2"/> <circle cx="80" cy="-60" r="1.5" fill="#FFF6F2"/>
    <circle cx="40" cy="-40" r="2" fill="#FFF6F2"/> <circle cx="60" cy="-35" r="1.5" fill="#FFF6F2"/> <circle cx="50" cy="-20" r="2" fill="#FFF6F2"/>
    <!-- High volume outputs quickly flying out -->
    <circle cx="35" cy="15" r="2" fill="#FFF6F2"/> <circle cx="50" cy="25" r="3" fill="#FFF6F2"/> <circle cx="65" cy="15" r="2" fill="#FFF6F2"/>
    <circle cx="40" cy="45" r="2" fill="#FFF6F2"/> <circle cx="60" cy="50" r="2.5" fill="#FFF6F2"/>
    
    <!-- Speed/Velocity lines on B2C side -->
    <path d="M50,15 L50,60" fill="none" stroke-width="1" opacity="0.3"/>
    <path d="M35,15 L25,40" fill="none" stroke-width="1" opacity="0.2"/>
    <path d="M65,15 L75,40" fill="none" stroke-width="1" opacity="0.2"/>
  
  </g>
</svg>
