
<svg viewBox="0 0 800 500" xmlns="http://www.w3.org/2000/svg">
  <defs>
    <!-- Deep elegant gradient matching the 2nd & 3rd inspirations -->
    <linearGradient id="bgGradient" x1="0%" y1="0%" x2="0%" y2="100%">
      <stop offset="0%" stop-color="#FF8A3D" />
      <stop offset="60%" stop-color="#DE5D1A" />
      <stop offset="100%" stop-color="#9E3500" />
    </linearGradient>
    <radialGradient id="glowHighlight" cx="50%" cy="30%" r="60%">
      <stop offset="0%" stop-color="rgba(255, 255, 255, 0.2)" />
      <stop offset="100%" stop-color="rgba(255, 255, 255, 0)" />
    </radialGradient>
  </defs>
  
  <rect width="100%" height="100%" fill="url(#bgGradient)"/>
  <rect width="100%" height="100%" fill="url(#glowHighlight)"/>
  
  <g transform="translate(400, 250)" stroke="#FFF6F2" fill="none" stroke-width="1.5" stroke-linecap="round" stroke-linejoin="round">
    
    <!-- Complex geometric multi-layer representation -->
    <rect x="-60" y="-60" width="80" height="80" rx="8" stroke-width="1.5"/>
    <rect x="-20" y="-20" width="80" height="80" rx="8" stroke-width="1.5" stroke-dasharray="4 4" opacity="0.6"/>
    <path d="M-60,-60 L-20,-20 M20,-60 L60,-20 M-60,20 L-20,60 M20,20 L60,60" stroke-width="1" opacity="0.5"/>
    <!-- Detailed technical marks -->
    <circle cx="-20" cy="-20" r="20" stroke-width="1" opacity="0.7"/>
    <circle cx="20" cy="20" r="20" stroke-width="1" stroke-dasharray="2 2" opacity="0.5"/>
    <!-- Annotations lines -->
    <polyline points="-80,-80 -60,-60" stroke-width="1" opacity="0.5"/>
    <polyline points="-80,-80 -100,-80" stroke-width="1" opacity="0.5"/>
    <polyline points="80,80 60,60" stroke-width="1" opacity="0.5"/>
    <polyline points="80,80 100,80" stroke-width="1" opacity="0.5"/>
  
  </g>
</svg>
