
<svg viewBox="0 0 800 500" xmlns="http://www.w3.org/2000/svg">
  <defs>
    <!-- Deep elegant gradient matching the 2nd & 3rd inspirations -->
    <linearGradient id="bgGradient" x1="0%" y1="0%" x2="0%" y2="100%">
      <stop offset="0%" stop-color="#FF8A3D" />
      <stop offset="60%" stop-color="#DE5D1A" />
      <stop offset="100%" stop-color="#9E3500" />
    </linearGradient>
    <radialGradient id="glowHighlight" cx="50%" cy="30%" r="60%">
      <stop offset="0%" stop-color="rgba(255, 255, 255, 0.2)" />
      <stop offset="100%" stop-color="rgba(255, 255, 255, 0)" />
    </radialGradient>
  </defs>
  
  <rect width="100%" height="100%" fill="url(#bgGradient)"/>
  <rect width="100%" height="100%" fill="url(#glowHighlight)"/>
  
  <g transform="translate(400, 250)" stroke="#FFF6F2" fill="none" stroke-width="1.5" stroke-linecap="round" stroke-linejoin="round">
    
    <!-- Concentric detailed data circles / AI transformation -->
    <circle cx="0" cy="0" r="20" stroke-dasharray="5 10" opacity="0.8"/><circle cx="0" cy="0" r="35" stroke-dasharray="7 11" opacity="0.75"/><circle cx="0" cy="0" r="50" stroke-dasharray="9 12" opacity="0.7000000000000001"/><circle cx="0" cy="0" r="65" stroke-dasharray="11 13" opacity="0.65"/><circle cx="0" cy="0" r="80" stroke-dasharray="13 14" opacity="0.6000000000000001"/><circle cx="0" cy="0" r="95" stroke-dasharray="15 15" opacity="0.55"/><circle cx="0" cy="0" r="110" stroke-dasharray="17 16" opacity="0.5"/><circle cx="0" cy="0" r="125" stroke-dasharray="19 17" opacity="0.45"/>
    <!-- Center core -->
    <circle cx="0" cy="0" r="10" fill="#FFF6F2" opacity="0.9"/>
    <path d="M-10,-10 L-50,-50 M10,-10 L50,-50 M-10,10 L-50,50 M10,10 L50,50" stroke-width="2" opacity="0.6"/>
    <!-- Intricate network nodes -->
    <circle cx="-50" cy="-50" r="4" fill="#FFF6F2"/>
    <circle cx="50" cy="-50" r="4" fill="#FFF6F2"/>
    <circle cx="-50" cy="50" r="4" fill="#FFF6F2"/>
    <circle cx="50" cy="50" r="4" fill="#FFF6F2"/>
    <!-- Connecting geometric data tracks -->
    <path d="M-80,-20 L-50,-50 L0,-70 L50,-50 L80,-20 M-80,20 L-50,50 L0,70 L50,50 L80,20" stroke-width="1" opacity="0.4"/>
    <line x1="-120" y1="0" x2="-80" y2="0" stroke-width="1.5" stroke-dasharray="4 4"/>
    <line x1="80" y1="0" x2="120" y2="0" stroke-width="1.5" stroke-dasharray="4 4"/>
  
  </g>
</svg>
