
<svg viewBox="0 0 800 500" xmlns="http://www.w3.org/2000/svg">
  <defs>
    <!-- Deep elegant gradient matching the 2nd & 3rd inspirations -->
    <linearGradient id="bgGradient" x1="0%" y1="0%" x2="0%" y2="100%">
      <stop offset="0%" stop-color="#FF8A3D" />
      <stop offset="60%" stop-color="#DE5D1A" />
      <stop offset="100%" stop-color="#9E3500" />
    </linearGradient>
    <radialGradient id="glowHighlight" cx="50%" cy="30%" r="60%">
      <stop offset="0%" stop-color="rgba(255, 255, 255, 0.2)" />
      <stop offset="100%" stop-color="rgba(255, 255, 255, 0)" />
    </radialGradient>
  </defs>
  
  <rect width="100%" height="100%" fill="url(#bgGradient)"/>
  <rect width="100%" height="100%" fill="url(#glowHighlight)"/>
  
  <g transform="translate(400, 250)" stroke="#FFF6F2" fill="none" stroke-width="1.5" stroke-linecap="round" stroke-linejoin="round">
    
    <!-- Concentric layered glass rings showing UI depth and liquid smooth mechanics -->
    <circle cx="-20" cy="-20" r="40" stroke-width="1.5" opacity="0.8" />
    <circle cx="20" cy="20" r="40" stroke-width="1.5" stroke-dasharray="2 3" opacity="0.5" />
    <rect x="-50" y="-50" width="100" height="100" rx="20" stroke-width="2" opacity="0.9" />
    
    <!-- Liquid nodes and wave physics -->
    <path d="M-50,0 Q0,50 50,0" stroke-width="1.5" fill="none" opacity="0.7"/>
    <path d="M-30,-20 Q0,-50 30,-20" stroke-width="1" fill="none" stroke-dasharray="4 4" opacity="0.4"/>
    
    <!-- Technical framing markers mapping the UI component grid -->
    <polyline points="-80,-60 -80,-80 -60,-80" stroke-width="1.5" opacity="0.5" />
    <polyline points="60,80 80,80 80,60" stroke-width="1.5" opacity="0.5" />
    
    <!-- Connection points establishing trust hierarchy -->
    <circle cx="-20" cy="-20" r="4" fill="#FFF6F2"/>
    <circle cx="20" cy="20" r="4" fill="#FFF6F2"/>
    <circle cx="-50" cy="0" r="3" fill="#FFF6F2"/>
    <circle cx="50" cy="0" r="3" fill="#FFF6F2"/>

    <!-- Dynamic rising background vectors -->
    <line x1="-120" y1="50" x2="-80" y2="10" stroke-width="1" opacity="0.3"/>
    <line x1="80" y1="-10" x2="120" y2="-50" stroke-width="1" opacity="0.3"/>
  
  </g>
</svg>
