
<svg viewBox="0 0 800 500" xmlns="http://www.w3.org/2000/svg">
  <defs>
    <!-- Deep elegant gradient matching the 2nd & 3rd inspirations -->
    <linearGradient id="bgGradient" x1="0%" y1="0%" x2="0%" y2="100%">
      <stop offset="0%" stop-color="#FF8A3D" />
      <stop offset="60%" stop-color="#DE5D1A" />
      <stop offset="100%" stop-color="#9E3500" />
    </linearGradient>
    <radialGradient id="glowHighlight" cx="50%" cy="30%" r="60%">
      <stop offset="0%" stop-color="rgba(255, 255, 255, 0.2)" />
      <stop offset="100%" stop-color="rgba(255, 255, 255, 0)" />
    </radialGradient>
  </defs>
  
  <rect width="100%" height="100%" fill="url(#bgGradient)"/>
  <rect width="100%" height="100%" fill="url(#glowHighlight)"/>
  
  <g transform="translate(400, 250)" stroke="#FFF6F2" fill="none" stroke-width="1.5" stroke-linecap="round" stroke-linejoin="round">
    
    <!-- Complex locked vault / secure sphere -->
    <polygon points="0,-80 70,-40 70,40 0,80 -70,40 -70,-40" stroke-width="1.5" opacity="0.8"/>
    <polygon points="0,-50 40,-25 40,25 0,50 -40,25 -40,-25" stroke-width="1.5" stroke-dasharray="3 3"/>
    <!-- Inner Cross / Shield mechanism -->
    <path d="M-15,-5 L-15,5 L-5,5 L-5,15 L5,15 L5,5 L15,5 L15,-5 L5,-5 L5,-15 L-5,-15 L-5,-5 Z" fill="#FFF6F2" opacity="0.9" stroke="none"/>
    <!-- Secure data streams deflecting -->
    <path d="M-100,-20 Q-80,-10 -70,20" stroke-width="1" opacity="0.5"/>
    <path d="M100,20 Q80,10 70,-20" stroke-width="1" opacity="0.5"/>
    <circle cx="0" cy="-80" r="3" fill="#FFF6F2"/>
    <circle cx="0" cy="80" r="3" fill="#FFF6F2"/>
  
  </g>
</svg>
