
<svg viewBox="0 0 800 500" xmlns="http://www.w3.org/2000/svg">
  <defs>
    <!-- Deep elegant gradient matching the 2nd & 3rd inspirations -->
    <linearGradient id="bgGradient" x1="0%" y1="0%" x2="0%" y2="100%">
      <stop offset="0%" stop-color="#FF8A3D" />
      <stop offset="60%" stop-color="#DE5D1A" />
      <stop offset="100%" stop-color="#9E3500" />
    </linearGradient>
    <radialGradient id="glowHighlight" cx="50%" cy="30%" r="60%">
      <stop offset="0%" stop-color="rgba(255, 255, 255, 0.2)" />
      <stop offset="100%" stop-color="rgba(255, 255, 255, 0)" />
    </radialGradient>
  </defs>
  
  <rect width="100%" height="100%" fill="url(#bgGradient)"/>
  <rect width="100%" height="100%" fill="url(#glowHighlight)"/>
  
  <g transform="translate(400, 250)" stroke="#FFF6F2" fill="none" stroke-width="1.5" stroke-linecap="round" stroke-linejoin="round">
    
    <!-- Spherical astrolabe / globe logic -->
    <circle cx="0" cy="0" r="60" stroke-width="1.5"/>
    <ellipse cx="0" cy="0" rx="60" ry="20" stroke-width="1" opacity="0.6"/>
    <ellipse cx="0" cy="0" rx="20" ry="60" stroke-width="1" opacity="0.6"/>
    <!-- Location pinpoint tracking -->
    <path d="M-30,-40 L-10,-55 L10,-40 L30,-50 L50,-20 L60,0 L80,-10" stroke-width="1.5"/>
    <circle cx="-30" cy="-40" r="3" fill="#FFF6F2"/> <circle cx="10" cy="-40" r="3" fill="#FFF6F2"/> <circle cx="50" cy="-20" r="3" fill="#FFF6F2"/>
    <!-- Technical framing angles -->
    <path d="M-80,-60 L-80,-80 L-60,-80" stroke-width="1" opacity="0.5"/>
    <path d="M80,60 L80,80 L60,80" stroke-width="1" opacity="0.5"/>
    <line x1="-90" y1="0" x2="-60" y2="0" stroke-dasharray="2 2" stroke-width="1"/>
  
  </g>
</svg>
