
<svg viewBox="0 0 800 500" xmlns="http://www.w3.org/2000/svg">
  <defs>
    <!-- Deep elegant gradient matching the 2nd & 3rd inspirations -->
    <linearGradient id="bgGradient" x1="0%" y1="0%" x2="0%" y2="100%">
      <stop offset="0%" stop-color="#FF8A3D" />
      <stop offset="60%" stop-color="#DE5D1A" />
      <stop offset="100%" stop-color="#9E3500" />
    </linearGradient>
    <radialGradient id="glowHighlight" cx="50%" cy="30%" r="60%">
      <stop offset="0%" stop-color="rgba(255, 255, 255, 0.2)" />
      <stop offset="100%" stop-color="rgba(255, 255, 255, 0)" />
    </radialGradient>
  </defs>
  
  <rect width="100%" height="100%" fill="url(#bgGradient)"/>
  <rect width="100%" height="100%" fill="url(#glowHighlight)"/>
  
  <g transform="translate(400, 250)" stroke="#FFF6F2" fill="none" stroke-width="1.5" stroke-linecap="round" stroke-linejoin="round">
    
    <!-- Opposing Forces: Pull (Inbound) vs Push (Outbound) -->
    <!-- Divider -->
    <line x1="0" y1="-80" x2="0" y2="80" stroke-width="1" stroke-dasharray="4 4" opacity="0.3" />
    <text x="-50" y="-70" fill="#FFF6F2" font-family="Arial" font-size="10" font-weight="bold" opacity="0.8" text-anchor="middle">INBOUND</text>
    <text x="50" y="-70" fill="#FFF6F2" font-family="Arial" font-size="10" font-weight="bold" opacity="0.8" text-anchor="middle">OUTBOUND</text>

    <!-- LEFT SIDE: INBOUND (Magnetic Pull) -->
    <!-- Central Magnet / Content Core -->
    <path d="M-40,0 A15 15 0 1 1 -40,-30 L-30,-30 L-30,-20 A5 5 0 1 0 -30,-10 L-30,0 Z" fill="none" stroke-width="2" transform="rotate(-90 -40 -15)"/>
    
    <!-- Magnetic waves reaching upward/outward -->
    <path d="M-70,-45 Q-40,-60 -10,-45" fill="none" stroke-width="1.5" stroke-dasharray="2 2" opacity="0.6"/>
    <path d="M-80,-60 Q-40,-80 0,-60" fill="none" stroke-width="1" stroke-dasharray="1 3" opacity="0.4"/>
    
    <!-- Leads being pulled downwards into the core organically -->
    <path d="M-60,-50 L-50,-25" fill="none" stroke-width="1" opacity="0.5"/>
    <path d="M-20,-50 L-30,-25" fill="none" stroke-width="1" opacity="0.5"/>
    <circle cx="-60" cy="-50" r="3" fill="#FFF6F2"/>
    <circle cx="-20" cy="-50" r="3" fill="#FFF6F2"/>
    <circle cx="-40" cy="-35" r="2" fill="#FFF6F2"/>
    
    <!-- Converted organic leads nested at bottom -->
    <circle cx="-50" cy="40" r="3" fill="#FFF6F2"/> <circle cx="-30" cy="40" r="3" fill="#FFF6F2"/> <circle cx="-40" cy="50" r="4" fill="#FFF6F2"/>

    <!-- RIGHT SIDE: OUTBOUND (Targeted Push / Outreach) -->
    <!-- Central Node / Business Core pushing outward -->
    <circle cx="50" cy="40" r="10" fill="none" stroke-width="2"/>
    <circle cx="50" cy="40" r="3" fill="#FFF6F2"/>

    <!-- Targeted outreach beams pushing upward/outward aggressively -->
    <line x1="40" y1="30" x2="20" y2="-20" stroke-width="1.5" opacity="0.8"/>
    <line x1="50" y1="30" x2="50" y2="-40" stroke-width="2" opacity="0.9"/>
    <line x1="60" y1="30" x2="80" y2="-20" stroke-width="1.5" opacity="0.8"/>

    <!-- Target acquired nodes (hit targets) -->
    <rect x="15" y="-30" width="10" height="10" transform="rotate(45 20 -25)" fill="none" stroke-width="1.5"/>
    <circle cx="50" cy="-50" r="6" fill="#FFF6F2"/> <!-- Direct Hit -->
    <rect x="75" y="-30" width="10" height="10" transform="rotate(45 80 -25)" fill="none" stroke-width="1.5"/>

    <!-- Additional outreach grid showing massive volume/scale -->
    <path d="M20,10 Q50,-10 80,10" fill="none" stroke-width="1" opacity="0.3"/>
    <path d="M10,0 Q50,-30 90,0" fill="none" stroke-width="1" opacity="0.1"/>
  
  </g>
</svg>
