
<svg viewBox="0 0 800 500" xmlns="http://www.w3.org/2000/svg">
  <defs>
    <!-- Deep elegant gradient matching the 2nd & 3rd inspirations -->
    <linearGradient id="bgGradient" x1="0%" y1="0%" x2="0%" y2="100%">
      <stop offset="0%" stop-color="#FF8A3D" />
      <stop offset="60%" stop-color="#DE5D1A" />
      <stop offset="100%" stop-color="#9E3500" />
    </linearGradient>
    <radialGradient id="glowHighlight" cx="50%" cy="30%" r="60%">
      <stop offset="0%" stop-color="rgba(255, 255, 255, 0.2)" />
      <stop offset="100%" stop-color="rgba(255, 255, 255, 0)" />
    </radialGradient>
  </defs>
  
  <rect width="100%" height="100%" fill="url(#bgGradient)"/>
  <rect width="100%" height="100%" fill="url(#glowHighlight)"/>
  
  <g transform="translate(400, 250)" stroke="#FFF6F2" fill="none" stroke-width="1.5" stroke-linecap="round" stroke-linejoin="round">
    
    <!-- Abstract fingerprint/wave representation -->
    <path d="M-80,80 C-40,-80 40,-30 80,80" stroke-width="1.5" opacity="0.32000000000000006"/><path d="M-70,80 C-25,-37.926450759605174 25,-52.98488470659301 70,80" stroke-width="1.5" opacity="0.4"/><path d="M-60,80 C-10,-34.53512865871591 10,-100.80734182735712 60,80" stroke-width="1.5" opacity="0.48000000000000004"/><path d="M-50,80 C5,-72.94399959700664 -5,-129.49962483002227 50,80" stroke-width="1.5" opacity="0.56"/><path d="M-40,80 C20,-117.84012476539641 -20,-112.6821810431806 40,80" stroke-width="1.5" opacity="0.64"/><path d="M-30,80 C35,-127.94621373315692 -35,-65.8168907268387 30,80" stroke-width="1.5" opacity="0.7200000000000001"/><path d="M-20,80 C50,-93.9707749099463 -50,-31.991485667481697 20,80" stroke-width="1.5" opacity="0.8"/><path d="M-10,80 C65,-47.15067006406055 -65,-42.30488728283477 10,80" stroke-width="1.5" opacity="0.7200000000000001"/><path d="M0,80 C80,-30.53208766883091 -80,-87.27500169043067 0,80" stroke-width="1.5" opacity="0.64"/><path d="M10,80 C95,-59.394075737912175 -95,-125.55651309423385 -10,80" stroke-width="1.5" opacity="0.56"/><path d="M20,80 C110,-107.20105554446849 -110,-121.95357645382262 -20,80" stroke-width="1.5" opacity="0.48000000000000004"/><path d="M30,80 C125,-129.99951032753518 -125,-79.77871510059747 -30,80" stroke-width="1.5" opacity="0.4"/>
    <!-- Intersecting data axes -->
    <line x1="-120" y1="80" x2="120" y2="80" stroke-width="2" opacity="0.7"/>
    <line x1="0" y1="-100" x2="0" y2="100" stroke-width="1" stroke-dasharray="4 4" opacity="0.4"/>
    <!-- Signal hit points -->
    <circle cx="-30" cy="0" r="3" fill="#FFF6F2"/> <circle cx="30" cy="20" r="3" fill="#FFF6F2"/> <circle cx="-10" cy="-30" r="4" fill="#FFF6F2"/> <circle cx="50" cy="-10" r="3" fill="#FFF6F2"/>
    <!-- Surrounding tech lines -->
    <line x1="-100" y1="-20" x2="-70" y2="-20" opacity="0.4821418988318283"/> <line x1="70" y1="-40" x2="100" y2="-40" opacity="0.7664258528709744"/> <line x1="-90" y1="40" x2="-90" y2="70" opacity="0.4660407722356443"/>
  
  </g>
</svg>
