
<svg viewBox="0 0 800 500" xmlns="http://www.w3.org/2000/svg">
  <defs>
    <!-- Deep elegant gradient matching the 2nd & 3rd inspirations -->
    <linearGradient id="bgGradient" x1="0%" y1="0%" x2="0%" y2="100%">
      <stop offset="0%" stop-color="#FF8A3D" />
      <stop offset="60%" stop-color="#DE5D1A" />
      <stop offset="100%" stop-color="#9E3500" />
    </linearGradient>
    <radialGradient id="glowHighlight" cx="50%" cy="30%" r="60%">
      <stop offset="0%" stop-color="rgba(255, 255, 255, 0.2)" />
      <stop offset="100%" stop-color="rgba(255, 255, 255, 0)" />
    </radialGradient>
  </defs>
  
  <rect width="100%" height="100%" fill="url(#bgGradient)"/>
  <rect width="100%" height="100%" fill="url(#glowHighlight)"/>
  
  <g transform="translate(400, 250)" stroke="#FFF6F2" fill="none" stroke-width="1.5" stroke-linecap="round" stroke-linejoin="round">
    
    <!-- Large Magnet/Capture Core Structure -->
    <path d="M-60,-50 C-60,-80 60,-80 60,-50 L60,10 C60,40 -60,40 -60,10 Z" fill="none" stroke-width="2" stroke-dasharray="0" opacity="0.6"/>
    <path d="M-40,-40 C-40,-60 40,-60 40,-40 L40,0 C40,20 -40,20 -40,0 Z" fill="none" stroke-width="1.5" stroke-dasharray="3 3" opacity="0.5"/>
    
    <!-- Magnetic/Pulling Waves -->
    <path d="M-80,-60 Q-40,-30 0,0" fill="none" stroke-width="1" opacity="0.4"/>
    <path d="M80,-60 Q40,-30 0,0" fill="none" stroke-width="1" opacity="0.4"/>
    <path d="M-100,-20 Q-50,10 0,40" fill="none" stroke-width="1.5" stroke-dasharray="2 4" opacity="0.8"/>
    <path d="M100,-20 Q50,10 0,40" fill="none" stroke-width="1.5" stroke-dasharray="2 4" opacity="0.8"/>

    <!-- Acquired Data Nodes (Leads) flowing downward -->
    <circle cx="-80" cy="-60" r="3" fill="#FFF6F2"/>
    <circle cx="80" cy="-60" r="3" fill="#FFF6F2"/>
    <circle cx="-100" cy="-20" r="2" fill="#FFF6F2"/>
    <circle cx="100" cy="-20" r="2" fill="#FFF6F2"/>
    <circle cx="-50" cy="10" r="4" fill="#FFF6F2"/>
    <circle cx="50" cy="10" r="4" fill="#FFF6F2"/>
    
    <!-- Central Processing Vault & High-Intent Anchor -->
    <rect x="-20" y="30" width="40" height="40" rx="8" fill="none" stroke-width="2" opacity="0.9"/>
    <circle cx="0" cy="50" r="10" fill="#FFF6F2" opacity="0.9"/>
    
    <!-- Base structural lines -->
    <line x1="-100" y1="80" x2="100" y2="80" stroke-width="2" opacity="0.4"/>
    <line x1="-80" y1="90" x2="80" y2="90" stroke-width="1" opacity="0.2"/>
    <line x1="0" y1="70" x2="0" y2="80" stroke-width="2"/>
  
  </g>
</svg>
