
<svg viewBox="0 0 800 500" xmlns="http://www.w3.org/2000/svg">
  <defs>
    <!-- Deep elegant gradient matching the 2nd & 3rd inspirations -->
    <linearGradient id="bgGradient" x1="0%" y1="0%" x2="0%" y2="100%">
      <stop offset="0%" stop-color="#FF8A3D" />
      <stop offset="60%" stop-color="#DE5D1A" />
      <stop offset="100%" stop-color="#9E3500" />
    </linearGradient>
    <radialGradient id="glowHighlight" cx="50%" cy="30%" r="60%">
      <stop offset="0%" stop-color="rgba(255, 255, 255, 0.2)" />
      <stop offset="100%" stop-color="rgba(255, 255, 255, 0)" />
    </radialGradient>
  </defs>
  
  <rect width="100%" height="100%" fill="url(#bgGradient)"/>
  <rect width="100%" height="100%" fill="url(#glowHighlight)"/>
  
  <g transform="translate(400, 250)" stroke="#FFF6F2" fill="none" stroke-width="1.5" stroke-linecap="round" stroke-linejoin="round">
    
    <!-- Multi-channel node web / ecosystem -->
    <!-- Central business/revenue core -->
    <polygon points="0,-25 25,0 0,25 -25,0" fill="none" stroke-width="2.5" />
    <circle cx="0" cy="0" r="10" fill="#FFF6F2" opacity="0.9" />
    
    <!-- Strategy Nodes branching out (SEO, Paid, Social, etc) -->
    <!-- Top Left -->
    <circle cx="-60" cy="-60" r="12" fill="none" stroke-width="1.5" stroke-dasharray="2 2"/>
    <path d="M-50,-50 L-15,-15" fill="none" stroke-width="1.5" opacity="0.5"/>
    
    <!-- Top Right -->
    <rect x="50" y="-70" width="20" height="20" fill="none" stroke-width="1.5" />
    <path d="M50,-50 L15,-15" fill="none" stroke-width="1.5" opacity="0.5"/>

    <!-- Bottom Left -->
    <circle cx="-70" cy="40" r="8" fill="#FFF6F2" opacity="0.6"/>
    <path d="M-62,32 L-15,15" fill="none" stroke-width="1" stroke-dasharray="3 3"/>

    <!-- Bottom Right Orbiting -->
    <path d="M40,40 A15 15 0 1 1 70,40 A15 15 0 1 1 40,40" fill="none" stroke-width="1" opacity="0.6"/>
    <circle cx="55" cy="25" r="3" fill="#FFF6F2"/>
    <path d="M45,30 L15,15" fill="none" stroke-width="1.5" opacity="0.5"/>
    
    <!-- Connecting outer grid showing ecosystem stability -->
    <path d="M-60,-60 Q0,-80 60,-60 T70,40 T-70,40 T-60,-60" fill="none" stroke-width="1" opacity="0.2" />
    
    <!-- High-intent signals traversing the channels -->
    <circle cx="-35" cy="-35" r="3" fill="#FFF6F2"/>
    <circle cx="35" cy="-35" r="3" fill="#FFF6F2"/>
    <circle cx="-40" cy="23" r="2" fill="#FFF6F2"/>
    <circle cx="30" cy="23" r="2" fill="#FFF6F2"/>
  
  </g>
</svg>
