
<svg viewBox="0 0 800 500" xmlns="http://www.w3.org/2000/svg">
  <defs>
    <!-- Deep elegant gradient matching the 2nd & 3rd inspirations -->
    <linearGradient id="bgGradient" x1="0%" y1="0%" x2="0%" y2="100%">
      <stop offset="0%" stop-color="#FF8A3D" />
      <stop offset="60%" stop-color="#DE5D1A" />
      <stop offset="100%" stop-color="#9E3500" />
    </linearGradient>
    <radialGradient id="glowHighlight" cx="50%" cy="30%" r="60%">
      <stop offset="0%" stop-color="rgba(255, 255, 255, 0.2)" />
      <stop offset="100%" stop-color="rgba(255, 255, 255, 0)" />
    </radialGradient>
  </defs>
  
  <rect width="100%" height="100%" fill="url(#bgGradient)"/>
  <rect width="100%" height="100%" fill="url(#glowHighlight)"/>
  
  <g transform="translate(400, 250)" stroke="#FFF6F2" fill="none" stroke-width="1.5" stroke-linecap="round" stroke-linejoin="round">
    
    <!-- Complex rising analytics chart with secondary data -->
    <path d="M-120,60 L-80,40 L-40,50 L0,-10 L40,-30 L80,-90 L120,-110" stroke-width="2.5"/>
    <path d="M-120,40 L-80,0 L-40,20 L0,-40 L40,-50 L80,-70" stroke-width="1" stroke-dasharray="4 4" opacity="0.6"/>
    <path d="M-120,80 L-80,90 L-40,70 L0,90 L40,80 L80,100" stroke-width="1" opacity="0.4"/>
    <!-- Shattering effect below main line -->
    <path d="M-20,20 L-40,40 L-30,50 M10,10 L30,40 L20,60 M-60,70 L-50,60" stroke-width="1" opacity="0.6"/>
    <!-- Grid axes -->
    <line x1="-120" y1="120" x2="120" y2="120" stroke-width="2" opacity="0.6"/>
    <line x1="-120" y1="120" x2="-120" y2="-120" stroke-width="2" opacity="0.6"/>
    <!-- Grid measurement ticks -->
    <line x1="-120" y1="120" x2="-115" y2="120" stroke-width="1.5"/><line x1="-120" y1="70" x2="-115" y2="70" stroke-width="1.5"/><line x1="-120" y1="20" x2="-115" y2="20" stroke-width="1.5"/><line x1="-120" y1="-30" x2="-115" y2="-30" stroke-width="1.5"/><line x1="-120" y1="-80" x2="-115" y2="-80" stroke-width="1.5"/>
    <line x1="-120" y1="120" x2="-120" y2="125" stroke-width="1.5"/><line x1="-70" y1="120" x2="-70" y2="125" stroke-width="1.5"/><line x1="-20" y1="120" x2="-20" y2="125" stroke-width="1.5"/><line x1="30" y1="120" x2="30" y2="125" stroke-width="1.5"/><line x1="80" y1="120" x2="80" y2="125" stroke-width="1.5"/>
    <!-- Target node -->
    <circle cx="120" cy="-110" r="4" fill="#FFF6F2"/>
    <circle cx="120" cy="-110" r="10" stroke-dasharray="2 2"/>
  
  </g>
</svg>
