
<svg viewBox="0 0 800 500" xmlns="http://www.w3.org/2000/svg">
  <defs>
    <!-- Deep elegant gradient matching the 2nd & 3rd inspirations -->
    <linearGradient id="bgGradient" x1="0%" y1="0%" x2="0%" y2="100%">
      <stop offset="0%" stop-color="#FF8A3D" />
      <stop offset="60%" stop-color="#DE5D1A" />
      <stop offset="100%" stop-color="#9E3500" />
    </linearGradient>
    <radialGradient id="glowHighlight" cx="50%" cy="30%" r="60%">
      <stop offset="0%" stop-color="rgba(255, 255, 255, 0.2)" />
      <stop offset="100%" stop-color="rgba(255, 255, 255, 0)" />
    </radialGradient>
  </defs>
  
  <rect width="100%" height="100%" fill="url(#bgGradient)"/>
  <rect width="100%" height="100%" fill="url(#glowHighlight)"/>
  
  <g transform="translate(400, 250)" stroke="#FFF6F2" fill="none" stroke-width="1.5" stroke-linecap="round" stroke-linejoin="round">
    
    <!-- Intricate Server / Funnel -->
    <path d="M-60,-80 L60,-80 L80,-40 L80,0 L60,40 L60,80 L-60,80 L-60,40 L-80,0 L-80,-40 Z" stroke-width="1.5" opacity="0.3"/>
    <rect x="-40" y="-60" width="80" height="20" rx="2" stroke-width="1.5"/>
    <rect x="-40" y="-20" width="80" height="20" rx="2" stroke-width="1.5"/>
    <rect x="-40" y="20" width="80" height="20" rx="2" stroke-width="1.5"/>
    <!-- Data points passing through -->
    <circle cx="0" cy="-50" r="3" fill="#FFF6F2"/>
    <circle cx="-20" cy="-10" r="3" fill="#FFF6F2"/>
    <circle cx="20" cy="-10" r="3" fill="#FFF6F2"/>
    <circle cx="0" cy="30" r="4" fill="#FFF6F2"/>
    <!-- Circuit lines cutting across -->
    <path d="M-100,-50 L-40,-50 M-100,-10 L-40,-10 M-100,30 L-40,30" stroke-width="1" stroke-dasharray="3 3"/>
    <path d="M40,-50 L100,-50 M40,-10 L100,-10 M40,30 L100,30" stroke-width="1" stroke-dasharray="3 3"/>
  
  </g>
</svg>
