
<svg viewBox="0 0 800 500" xmlns="http://www.w3.org/2000/svg">
  <defs>
    <!-- Deep elegant gradient matching the 2nd & 3rd inspirations -->
    <linearGradient id="bgGradient" x1="0%" y1="0%" x2="0%" y2="100%">
      <stop offset="0%" stop-color="#FF8A3D" />
      <stop offset="60%" stop-color="#DE5D1A" />
      <stop offset="100%" stop-color="#9E3500" />
    </linearGradient>
    <radialGradient id="glowHighlight" cx="50%" cy="30%" r="60%">
      <stop offset="0%" stop-color="rgba(255, 255, 255, 0.2)" />
      <stop offset="100%" stop-color="rgba(255, 255, 255, 0)" />
    </radialGradient>
  </defs>
  
  <rect width="100%" height="100%" fill="url(#bgGradient)"/>
  <rect width="100%" height="100%" fill="url(#glowHighlight)"/>
  
  <g transform="translate(400, 250)" stroke="#FFF6F2" fill="none" stroke-width="1.5" stroke-linecap="round" stroke-linejoin="round">
    
    <!-- Radar / Loop recovery signal -->
    <path d="M-80,0 A 80 80 0 0 1 80,0" stroke-width="1.5" stroke-dasharray="4 4" opacity="0.7"/>
    <path d="M-50,0 A 50 50 0 0 1 50,0" stroke-width="1.5" opacity="0.9"/>
    <!-- Signal pulse -->
    <path d="M-40,50 L-20,30 L0,70 L20,-10 L40,50" stroke-width="2"/>
    <!-- Recovery link returning upwards -->
    <path d="M20,-10 Q40,-50 0,-80 Q-40,-50 -20,30" fill="none" stroke-width="1.5" opacity="0.5"/>
    <circle cx="0" cy="-80" r="4" fill="#FFF6F2"/>
    <circle cx="-20" cy="30" r="3" fill="#FFF6F2"/>
    <circle cx="20" cy="-10" r="3" fill="#FFF6F2"/>
    <!-- Grid dots abstract -->
    <circle cx="-100" cy="50" r="1" fill="#FFF6F2"/> <circle cx="-80" cy="50" r="1" fill="#FFF6F2"/> <circle cx="80" cy="50" r="1" fill="#FFF6F2"/> <circle cx="100" cy="50" r="1" fill="#FFF6F2"/>
  
  </g>
</svg>
