
<svg viewBox="0 0 800 500" xmlns="http://www.w3.org/2000/svg">
  <defs>
    <!-- Deep elegant gradient matching the 2nd & 3rd inspirations -->
    <linearGradient id="bgGradient" x1="0%" y1="0%" x2="0%" y2="100%">
      <stop offset="0%" stop-color="#FF8A3D" />
      <stop offset="60%" stop-color="#DE5D1A" />
      <stop offset="100%" stop-color="#9E3500" />
    </linearGradient>
    <radialGradient id="glowHighlight" cx="50%" cy="30%" r="60%">
      <stop offset="0%" stop-color="rgba(255, 255, 255, 0.2)" />
      <stop offset="100%" stop-color="rgba(255, 255, 255, 0)" />
    </radialGradient>
  </defs>
  
  <rect width="100%" height="100%" fill="url(#bgGradient)"/>
  <rect width="100%" height="100%" fill="url(#glowHighlight)"/>
  
  <g transform="translate(400, 250)" stroke="#FFF6F2" fill="none" stroke-width="1.5" stroke-linecap="round" stroke-linejoin="round">
    
    <!-- Upward Growth Chart for Small Business -->
    <!-- Base Foundation (Small Business Structure) -->
    <path d="M-60,70 L60,70 L30,40 L-30,40 Z" fill="none" stroke-width="2" opacity="0.8"/>
    
    <!-- Central Engine / Core System -->
    <circle cx="0" cy="20" r="15" fill="none" stroke-width="2"/>
    <circle cx="0" cy="20" r="6" fill="#FFF6F2"/>

    <!-- Cost-effective channels shooting upwards -->
    <!-- Channel 1: SEO -->
    <path d="M-15,10 Q-40,-20 -50,-50" fill="none" stroke-width="1.5" stroke-dasharray="2 2" opacity="0.6"/>
    <circle cx="-50" cy="-50" r="4" fill="#FFF6F2"/>
    
    <!-- Channel 2: Local SEO -->
    <path d="M0,5 L0,-65" fill="none" stroke-width="2" opacity="0.9"/>
    <polygon points="0,-75 6,-65 -6,-65" fill="#FFF6F2"/>
    
    <!-- Channel 3: Referrals -->
    <path d="M15,10 Q40,-20 50,-50" fill="none" stroke-width="1.5" stroke-dasharray="2 2" opacity="0.6"/>
    <circle cx="50" cy="-50" r="4" fill="#FFF6F2"/>

    <!-- Connecting network of leads filling the space -->
    <line x1="-50" y1="-50" x2="0" y2="-65" stroke-width="1" opacity="0.3"/>
    <line x1="50" y1="-50" x2="0" y2="-65" stroke-width="1" opacity="0.3"/>
    
    <!-- Floating micro-leads attracted to the pillars -->
    <circle cx="-30" cy="-30" r="2" fill="#FFF6F2"/>
    <circle cx="-10" cy="-40" r="2" fill="#FFF6F2"/>
    <circle cx="30" cy="-30" r="2" fill="#FFF6F2"/>
    <circle cx="10" cy="-40" r="2" fill="#FFF6F2"/>
    <circle cx="-25" cy="0" r="1.5" fill="#FFF6F2"/>
    <circle cx="25" cy="0" r="1.5" fill="#FFF6F2"/>
  
  </g>
</svg>
