
<svg viewBox="0 0 800 500" xmlns="http://www.w3.org/2000/svg">
  <defs>
    <!-- Deep elegant gradient matching the 2nd & 3rd inspirations -->
    <linearGradient id="bgGradient" x1="0%" y1="0%" x2="0%" y2="100%">
      <stop offset="0%" stop-color="#FF8A3D" />
      <stop offset="60%" stop-color="#DE5D1A" />
      <stop offset="100%" stop-color="#9E3500" />
    </linearGradient>
    <radialGradient id="glowHighlight" cx="50%" cy="30%" r="60%">
      <stop offset="0%" stop-color="rgba(255, 255, 255, 0.2)" />
      <stop offset="100%" stop-color="rgba(255, 255, 255, 0)" />
    </radialGradient>
  </defs>
  
  <rect width="100%" height="100%" fill="url(#bgGradient)"/>
  <rect width="100%" height="100%" fill="url(#glowHighlight)"/>
  
  <g transform="translate(400, 250)" stroke="#FFF6F2" fill="none" stroke-width="1.5" stroke-linecap="round" stroke-linejoin="round">
    
    <!-- Architectural grid and blueprint structure -->
    <path d="M-80,-60 L-40,-60 L-40,-20 L0,-20 L0,20 L40,20 L40,60 L80,60" stroke-width="2" stroke-dasharray="2 4" opacity="0.4"/>
    <path d="M-80,-20 L-40,-20 L-40,20 L0,20 L0,60 L40,60 L40,100" stroke-width="2" stroke-dasharray="2 4" opacity="0.2"/>
    
    <!-- Central technical growth pillar / bridge -->
    <rect x="-20" y="-80" width="40" height="160" rx="4" stroke-width="1.5" opacity="0.6" />
    <path d="M-20,0 L20,0 M-20,-40 L20,-40 M-20,40 L20,40" stroke-width="1.5" />
    
    <!-- Rising exponential curve intersecting the architecture -->
    <path d="M-100,60 Q-40,40 20,-20 T100,-80" fill="none" stroke-width="2" />
    
    <!-- Arrow head at the top of curve -->
    <polyline points="70,-80 100,-80 100,-50" stroke-width="2" fill="none" stroke-linejoin="round" />
    
    <!-- Technical nodes & data points -->
    <circle cx="-65" cy="45" r="3" fill="#FFF6F2"/>
    <circle cx="-15" cy="5" r="4" fill="#FFF6F2"/>
    <circle cx="45" cy="-45" r="3" fill="#FFF6F2"/>
    
    <!-- Connection lines -->
    <line x1="-15" y1="5" x2="-50" y2="-20" stroke-width="1" opacity="0.5" />
    <line x1="45" y1="-45" x2="20" y2="-60" stroke-width="1" opacity="0.5" />
    <circle cx="-50" cy="-20" r="2" fill="#FFF6F2"/>
    <circle cx="20" cy="-60" r="2" fill="#FFF6F2"/>
  
  </g>
</svg>
