<svg xmlns="http://www.w3.org/2000/svg" xmlns:xlink="http://www.w3.org/1999/xlink" width="149" zoomAndPan="magnify" viewBox="0 0 111.75 30.000001" height="40" preserveAspectRatio="xMidYMid meet" version="1.2"><defs><clipPath id="1399e70c87"><path d="M 36 12 L 42 12 L 42 16 L 36 16 Z M 36 12 "/></clipPath><clipPath id="cd9ff32892"><path d="M 41.765625 12.054688 L 41.765625 13.484375 L 37.566406 13.484375 L 37.566406 15.390625 L 36.136719 15.390625 L 36.136719 14.085938 L 37.949219 12.179688 C 37.949219 12.179688 38.011719 12.117188 38.011719 12.085938 L 41.734375 12.085938 Z M 41.765625 12.054688 "/></clipPath><linearGradient x1="36.514647" gradientTransform="matrix(0.317995,0,0,0.317726,29.108445,2.903228)" y1="41.688026" x2="25.402068" gradientUnits="userSpaceOnUse" y2="26.399813" id="c3d62f67d4"><stop style="stop-color:#973633;stop-opacity:1;" offset="0"/><stop style="stop-color:#973634;stop-opacity:1;" offset="0.015625"/><stop style="stop-color:#963634;stop-opacity:1;" offset="0.03125"/><stop style="stop-color:#953634;stop-opacity:1;" offset="0.046875"/><stop style="stop-color:#943634;stop-opacity:1;" offset="0.0625"/><stop style="stop-color:#933634;stop-opacity:1;" offset="0.078125"/><stop style="stop-color:#923635;stop-opacity:1;" offset="0.09375"/><stop style="stop-color:#913635;stop-opacity:1;" offset="0.109375"/><stop style="stop-color:#903635;stop-opacity:1;" offset="0.125"/><stop style="stop-color:#8f3635;stop-opacity:1;" offset="0.140625"/><stop style="stop-color:#8e3635;stop-opacity:1;" offset="0.15625"/><stop style="stop-color:#8e3636;stop-opacity:1;" offset="0.171875"/><stop style="stop-color:#8d3636;stop-opacity:1;" offset="0.1875"/><stop style="stop-color:#8c3636;stop-opacity:1;" offset="0.203125"/><stop style="stop-color:#8b3636;stop-opacity:1;" offset="0.21875"/><stop style="stop-color:#8a3636;stop-opacity:1;" offset="0.234375"/><stop style="stop-color:#893537;stop-opacity:1;" offset="0.25"/><stop style="stop-color:#883537;stop-opacity:1;" offset="0.265625"/><stop style="stop-color:#873537;stop-opacity:1;" offset="0.28125"/><stop style="stop-color:#863537;stop-opacity:1;" offset="0.296875"/><stop style="stop-color:#853538;stop-opacity:1;" offset="0.3125"/><stop style="stop-color:#843538;stop-opacity:1;" offset="0.328125"/><stop style="stop-color:#833538;stop-opacity:1;" offset="0.34375"/><stop style="stop-color:#823538;stop-opacity:1;" offset="0.359375"/><stop style="stop-color:#823538;stop-opacity:1;" offset="0.375"/><stop style="stop-color:#813539;stop-opacity:1;" offset="0.390625"/><stop style="stop-color:#803539;stop-opacity:1;" offset="0.40625"/><stop style="stop-color:#7f3539;stop-opacity:1;" offset="0.421875"/><stop style="stop-color:#7e3539;stop-opacity:1;" offset="0.4375"/><stop style="stop-color:#7d3539;stop-opacity:1;" offset="0.449378"/><stop style="stop-color:#7c353a;stop-opacity:1;" offset="0.453125"/><stop style="stop-color:#7c353a;stop-opacity:1;" offset="0.46875"/><stop style="stop-color:#7b353a;stop-opacity:1;" offset="0.484375"/><stop style="stop-color:#7a353a;stop-opacity:1;" offset="0.5"/><stop style="stop-color:#79353a;stop-opacity:1;" offset="0.515625"/><stop style="stop-color:#78353a;stop-opacity:1;" offset="0.53125"/><stop style="stop-color:#77353b;stop-opacity:1;" offset="0.546875"/><stop style="stop-color:#77353b;stop-opacity:1;" offset="0.550622"/><stop style="stop-color:#76353b;stop-opacity:1;" offset="0.5625"/><stop style="stop-color:#76353b;stop-opacity:1;" offset="0.578125"/><stop style="stop-color:#75353b;stop-opacity:1;" offset="0.59375"/><stop style="stop-color:#74353c;stop-opacity:1;" offset="0.609375"/><stop style="stop-color:#73353c;stop-opacity:1;" offset="0.625"/><stop style="stop-color:#72353c;stop-opacity:1;" offset="0.640625"/><stop style="stop-color:#71353c;stop-opacity:1;" offset="0.65625"/><stop style="stop-color:#70343c;stop-opacity:1;" offset="0.671875"/><stop style="stop-color:#6f343d;stop-opacity:1;" offset="0.6875"/><stop style="stop-color:#6e343d;stop-opacity:1;" offset="0.703125"/><stop style="stop-color:#6d343d;stop-opacity:1;" offset="0.71875"/><stop style="stop-color:#6c343d;stop-opacity:1;" offset="0.734375"/><stop style="stop-color:#6b343d;stop-opacity:1;" offset="0.75"/><stop style="stop-color:#6b343e;stop-opacity:1;" offset="0.765625"/><stop style="stop-color:#6a343e;stop-opacity:1;" offset="0.78125"/><stop style="stop-color:#69343e;stop-opacity:1;" offset="0.796875"/><stop style="stop-color:#68343e;stop-opacity:1;" offset="0.8125"/><stop style="stop-color:#67343e;stop-opacity:1;" offset="0.828125"/><stop style="stop-color:#66343f;stop-opacity:1;" offset="0.84375"/><stop style="stop-color:#65343f;stop-opacity:1;" offset="0.859375"/><stop style="stop-color:#64343f;stop-opacity:1;" offset="0.875"/><stop style="stop-color:#63343f;stop-opacity:1;" offset="0.890625"/><stop style="stop-color:#623440;stop-opacity:1;" offset="0.90625"/><stop style="stop-color:#613440;stop-opacity:1;" offset="0.921875"/><stop style="stop-color:#603440;stop-opacity:1;" offset="0.9375"/><stop style="stop-color:#603440;stop-opacity:1;" offset="0.953125"/><stop style="stop-color:#5f3440;stop-opacity:1;" offset="0.96875"/><stop style="stop-color:#5e3441;stop-opacity:1;" offset="0.984375"/><stop style="stop-color:#5d3441;stop-opacity:1;" offset="1"/></linearGradient><clipPath id="5281f07811"><path d="M 30 5 L 43 5 L 43 23 L 30 23 Z M 30 5 "/></clipPath><clipPath id="9230a0f2cd"><path d="M 42.496094 19.265625 C 42.496094 21.140625 40.96875 22.699219 39.0625 22.699219 C 37.152344 22.699219 35.628906 21.171875 35.628906 19.265625 L 37.058594 19.265625 C 37.058594 20.378906 37.949219 21.269531 39.0625 21.269531 C 40.175781 21.269531 41.066406 20.378906 41.066406 19.265625 C 41.066406 18.152344 40.175781 17.265625 39.0625 17.265625 L 30.03125 17.265625 L 36.328125 10.59375 C 36.898438 9.988281 37.183594 9.449219 37.183594 8.941406 C 37.183594 7.828125 36.296875 6.9375 35.183594 6.9375 C 34.070312 6.9375 33.179688 7.828125 33.179688 8.941406 L 31.746094 8.941406 C 31.746094 7.066406 33.273438 5.507812 35.183594 5.507812 C 37.089844 5.507812 38.617188 7.035156 38.617188 8.941406 C 38.617188 10.847656 38.203125 10.6875 37.375 11.546875 C 37.375 11.546875 33.371094 15.804688 33.371094 15.804688 L 39.0625 15.804688 C 40.9375 15.804688 42.496094 17.328125 42.496094 19.234375 Z M 42.496094 19.265625 "/></clipPath><linearGradient x1="10.585909" gradientTransform="matrix(0.317995,0,0,0.317726,29.108445,2.903228)" y1="6.001797" x2="27.852818" gradientUnits="userSpaceOnUse" y2="66.374747" id="2519dc2911"><stop style="stop-color:#c93828;stop-opacity:1;" offset="0"/><stop style="stop-color:#c93828;stop-opacity:1;" offset="0.015625"/><stop style="stop-color:#c83828;stop-opacity:1;" offset="0.0195312"/><stop style="stop-color:#c83828;stop-opacity:1;" offset="0.0234375"/><stop style="stop-color:#c73828;stop-opacity:1;" offset="0.0273437"/><stop style="stop-color:#c63829;stop-opacity:1;" offset="0.03125"/><stop style="stop-color:#c53829;stop-opacity:1;" offset="0.0351562"/><stop style="stop-color:#c43829;stop-opacity:1;" offset="0.0390625"/><stop style="stop-color:#c43829;stop-opacity:1;" offset="0.0429688"/><stop style="stop-color:#c33829;stop-opacity:1;" offset="0.046875"/><stop style="stop-color:#c2382a;stop-opacity:1;" offset="0.0507812"/><stop style="stop-color:#c1382a;stop-opacity:1;" offset="0.0546875"/><stop style="stop-color:#c0382a;stop-opacity:1;" offset="0.0585938"/><stop style="stop-color:#bf382a;stop-opacity:1;" offset="0.0625"/><stop style="stop-color:#bf382a;stop-opacity:1;" offset="0.0664062"/><stop style="stop-color:#be382b;stop-opacity:1;" offset="0.0703125"/><stop style="stop-color:#bd382b;stop-opacity:1;" offset="0.0742188"/><stop style="stop-color:#bc382b;stop-opacity:1;" offset="0.078125"/><stop style="stop-color:#bb382b;stop-opacity:1;" offset="0.0820312"/><stop style="stop-color:#ba382b;stop-opacity:1;" offset="0.0859375"/><stop style="stop-color:#ba372c;stop-opacity:1;" offset="0.0898437"/><stop style="stop-color:#b9372c;stop-opacity:1;" offset="0.09375"/><stop style="stop-color:#b8372c;stop-opacity:1;" offset="0.0976562"/><stop style="stop-color:#b7372c;stop-opacity:1;" offset="0.101562"/><stop style="stop-color:#b6372c;stop-opacity:1;" offset="0.105469"/><stop style="stop-color:#b5372d;stop-opacity:1;" offset="0.109375"/><stop style="stop-color:#b5372d;stop-opacity:1;" offset="0.113281"/><stop style="stop-color:#b4372d;stop-opacity:1;" offset="0.117188"/><stop style="stop-color:#b3372d;stop-opacity:1;" offset="0.121094"/><stop style="stop-color:#b2372d;stop-opacity:1;" offset="0.125"/><stop style="stop-color:#b1372d;stop-opacity:1;" offset="0.128906"/><stop style="stop-color:#b0372e;stop-opacity:1;" offset="0.132812"/><stop style="stop-color:#b0372e;stop-opacity:1;" offset="0.136719"/><stop style="stop-color:#af372e;stop-opacity:1;" offset="0.140625"/><stop style="stop-color:#ae372e;stop-opacity:1;" offset="0.144531"/><stop style="stop-color:#ad372e;stop-opacity:1;" offset="0.148438"/><stop style="stop-color:#ac372f;stop-opacity:1;" offset="0.152344"/><stop style="stop-color:#ab372f;stop-opacity:1;" offset="0.15625"/><stop style="stop-color:#ab372f;stop-opacity:1;" offset="0.160156"/><stop style="stop-color:#aa372f;stop-opacity:1;" offset="0.164062"/><stop style="stop-color:#a9372f;stop-opacity:1;" offset="0.167969"/><stop style="stop-color:#a83730;stop-opacity:1;" offset="0.171875"/><stop style="stop-color:#a73730;stop-opacity:1;" offset="0.175781"/><stop style="stop-color:#a63730;stop-opacity:1;" offset="0.179687"/><stop style="stop-color:#a63730;stop-opacity:1;" offset="0.183594"/><stop style="stop-color:#a53730;stop-opacity:1;" offset="0.1875"/><stop style="stop-color:#a43731;stop-opacity:1;" offset="0.191406"/><stop style="stop-color:#a33731;stop-opacity:1;" offset="0.195312"/><stop style="stop-color:#a23731;stop-opacity:1;" offset="0.199219"/><stop style="stop-color:#a13631;stop-opacity:1;" offset="0.203125"/><stop style="stop-color:#a03631;stop-opacity:1;" offset="0.207031"/><stop style="stop-color:#a03631;stop-opacity:1;" offset="0.210937"/><stop style="stop-color:#9f3632;stop-opacity:1;" offset="0.214844"/><stop style="stop-color:#9e3632;stop-opacity:1;" offset="0.21875"/><stop style="stop-color:#9d3632;stop-opacity:1;" offset="0.222656"/><stop style="stop-color:#9c3632;stop-opacity:1;" offset="0.226562"/><stop style="stop-color:#9b3632;stop-opacity:1;" offset="0.230469"/><stop style="stop-color:#9b3633;stop-opacity:1;" offset="0.234375"/><stop style="stop-color:#9a3633;stop-opacity:1;" offset="0.238281"/><stop style="stop-color:#993633;stop-opacity:1;" offset="0.242187"/><stop style="stop-color:#983633;stop-opacity:1;" offset="0.246094"/><stop style="stop-color:#973633;stop-opacity:1;" offset="0.25"/><stop style="stop-color:#963634;stop-opacity:1;" offset="0.253906"/><stop style="stop-color:#963634;stop-opacity:1;" offset="0.257812"/><stop style="stop-color:#953634;stop-opacity:1;" offset="0.261719"/><stop style="stop-color:#943634;stop-opacity:1;" offset="0.265625"/><stop style="stop-color:#933634;stop-opacity:1;" offset="0.269531"/><stop style="stop-color:#923635;stop-opacity:1;" offset="0.273437"/><stop style="stop-color:#913635;stop-opacity:1;" offset="0.277344"/><stop style="stop-color:#913635;stop-opacity:1;" offset="0.28125"/><stop style="stop-color:#903635;stop-opacity:1;" offset="0.285156"/><stop style="stop-color:#8f3635;stop-opacity:1;" offset="0.289062"/><stop style="stop-color:#8e3636;stop-opacity:1;" offset="0.292969"/><stop style="stop-color:#8d3636;stop-opacity:1;" offset="0.296875"/><stop style="stop-color:#8c3636;stop-opacity:1;" offset="0.300781"/><stop style="stop-color:#8c3636;stop-opacity:1;" offset="0.304687"/><stop style="stop-color:#8b3636;stop-opacity:1;" offset="0.308594"/><stop style="stop-color:#8a3636;stop-opacity:1;" offset="0.3125"/><stop style="stop-color:#893537;stop-opacity:1;" offset="0.316406"/><stop style="stop-color:#883537;stop-opacity:1;" offset="0.320312"/><stop style="stop-color:#873537;stop-opacity:1;" offset="0.324219"/><stop style="stop-color:#873537;stop-opacity:1;" offset="0.328125"/><stop style="stop-color:#863537;stop-opacity:1;" offset="0.332031"/><stop style="stop-color:#853538;stop-opacity:1;" offset="0.335937"/><stop style="stop-color:#843538;stop-opacity:1;" offset="0.339844"/><stop style="stop-color:#833538;stop-opacity:1;" offset="0.34375"/><stop style="stop-color:#823538;stop-opacity:1;" offset="0.347656"/><stop style="stop-color:#823538;stop-opacity:1;" offset="0.351562"/><stop style="stop-color:#813539;stop-opacity:1;" offset="0.355469"/><stop style="stop-color:#803539;stop-opacity:1;" offset="0.359375"/><stop style="stop-color:#7f3539;stop-opacity:1;" offset="0.363281"/><stop style="stop-color:#7e3539;stop-opacity:1;" offset="0.367187"/><stop style="stop-color:#7d3539;stop-opacity:1;" offset="0.371094"/><stop style="stop-color:#7d353a;stop-opacity:1;" offset="0.375"/><stop style="stop-color:#7c353a;stop-opacity:1;" offset="0.378906"/><stop style="stop-color:#7b353a;stop-opacity:1;" offset="0.382812"/><stop style="stop-color:#7a353a;stop-opacity:1;" offset="0.386719"/><stop style="stop-color:#79353a;stop-opacity:1;" offset="0.390625"/><stop style="stop-color:#78353a;stop-opacity:1;" offset="0.394531"/><stop style="stop-color:#77353b;stop-opacity:1;" offset="0.398437"/><stop style="stop-color:#77353b;stop-opacity:1;" offset="0.402344"/><stop style="stop-color:#76353b;stop-opacity:1;" offset="0.40625"/><stop style="stop-color:#75353b;stop-opacity:1;" offset="0.410156"/><stop style="stop-color:#74353b;stop-opacity:1;" offset="0.414062"/><stop style="stop-color:#73353c;stop-opacity:1;" offset="0.417969"/><stop style="stop-color:#72353c;stop-opacity:1;" offset="0.421875"/><stop style="stop-color:#72353c;stop-opacity:1;" offset="0.425781"/><stop style="stop-color:#71353c;stop-opacity:1;" offset="0.429687"/><stop style="stop-color:#70343c;stop-opacity:1;" offset="0.433594"/><stop style="stop-color:#6f343d;stop-opacity:1;" offset="0.4375"/><stop style="stop-color:#6e343d;stop-opacity:1;" offset="0.441406"/><stop style="stop-color:#6d343d;stop-opacity:1;" offset="0.445312"/><stop style="stop-color:#6d343d;stop-opacity:1;" offset="0.449219"/><stop style="stop-color:#6c343d;stop-opacity:1;" offset="0.453125"/><stop style="stop-color:#6b343e;stop-opacity:1;" offset="0.457031"/><stop style="stop-color:#6a343e;stop-opacity:1;" offset="0.460937"/><stop style="stop-color:#69343e;stop-opacity:1;" offset="0.464844"/><stop style="stop-color:#68343e;stop-opacity:1;" offset="0.46875"/><stop style="stop-color:#68343e;stop-opacity:1;" offset="0.472656"/><stop style="stop-color:#67343f;stop-opacity:1;" offset="0.476563"/><stop style="stop-color:#66343f;stop-opacity:1;" offset="0.480469"/><stop style="stop-color:#65343f;stop-opacity:1;" offset="0.484375"/><stop style="stop-color:#64343f;stop-opacity:1;" offset="0.488281"/><stop style="stop-color:#63343f;stop-opacity:1;" offset="0.492187"/><stop style="stop-color:#63343f;stop-opacity:1;" offset="0.496094"/><stop style="stop-color:#623440;stop-opacity:1;" offset="0.5"/><stop style="stop-color:#613440;stop-opacity:1;" offset="0.503906"/><stop style="stop-color:#603440;stop-opacity:1;" offset="0.507812"/><stop style="stop-color:#5f3440;stop-opacity:1;" offset="0.511719"/><stop style="stop-color:#5e3440;stop-opacity:1;" offset="0.515625"/><stop style="stop-color:#5e3441;stop-opacity:1;" offset="0.519531"/><stop style="stop-color:#5d3441;stop-opacity:1;" offset="0.523438"/><stop style="stop-color:#5c3441;stop-opacity:1;" offset="0.527344"/><stop style="stop-color:#5b3441;stop-opacity:1;" offset="0.53125"/><stop style="stop-color:#5a3441;stop-opacity:1;" offset="0.535156"/><stop style="stop-color:#593442;stop-opacity:1;" offset="0.539063"/><stop style="stop-color:#593442;stop-opacity:1;" offset="0.542969"/><stop style="stop-color:#583342;stop-opacity:1;" offset="0.546875"/><stop style="stop-color:#573342;stop-opacity:1;" offset="0.550781"/><stop style="stop-color:#563342;stop-opacity:1;" offset="0.554688"/><stop style="stop-color:#553343;stop-opacity:1;" offset="0.558594"/><stop style="stop-color:#543343;stop-opacity:1;" offset="0.5625"/><stop style="stop-color:#543343;stop-opacity:1;" offset="0.566406"/><stop style="stop-color:#533343;stop-opacity:1;" offset="0.570313"/><stop style="stop-color:#523343;stop-opacity:1;" offset="0.574219"/><stop style="stop-color:#513343;stop-opacity:1;" offset="0.578125"/><stop style="stop-color:#503344;stop-opacity:1;" offset="0.582031"/><stop style="stop-color:#4f3344;stop-opacity:1;" offset="0.585938"/><stop style="stop-color:#4e3344;stop-opacity:1;" offset="0.589844"/><stop style="stop-color:#4e3344;stop-opacity:1;" offset="0.59375"/><stop style="stop-color:#4d3344;stop-opacity:1;" offset="0.597656"/><stop style="stop-color:#4c3345;stop-opacity:1;" offset="0.601562"/><stop style="stop-color:#4b3345;stop-opacity:1;" offset="0.605469"/><stop style="stop-color:#4a3345;stop-opacity:1;" offset="0.609375"/><stop style="stop-color:#493345;stop-opacity:1;" offset="0.613281"/><stop style="stop-color:#493345;stop-opacity:1;" offset="0.617188"/><stop style="stop-color:#483346;stop-opacity:1;" offset="0.621094"/><stop style="stop-color:#473346;stop-opacity:1;" offset="0.625"/><stop style="stop-color:#463346;stop-opacity:1;" offset="0.628906"/><stop style="stop-color:#453346;stop-opacity:1;" offset="0.632812"/><stop style="stop-color:#443346;stop-opacity:1;" offset="0.636719"/><stop style="stop-color:#443347;stop-opacity:1;" offset="0.640625"/><stop style="stop-color:#433347;stop-opacity:1;" offset="0.644531"/><stop style="stop-color:#423347;stop-opacity:1;" offset="0.648438"/><stop style="stop-color:#413347;stop-opacity:1;" offset="0.652344"/><stop style="stop-color:#403347;stop-opacity:1;" offset="0.65625"/><stop style="stop-color:#3f3248;stop-opacity:1;" offset="0.660156"/><stop style="stop-color:#3f3248;stop-opacity:1;" offset="0.664062"/><stop style="stop-color:#3e3248;stop-opacity:1;" offset="0.667969"/><stop style="stop-color:#3d3248;stop-opacity:1;" offset="0.671875"/><stop style="stop-color:#3c3248;stop-opacity:1;" offset="0.675781"/><stop style="stop-color:#3b3248;stop-opacity:1;" offset="0.679687"/><stop style="stop-color:#3a3249;stop-opacity:1;" offset="0.683594"/><stop style="stop-color:#3a3249;stop-opacity:1;" offset="0.6875"/><stop style="stop-color:#393249;stop-opacity:1;" offset="0.691406"/><stop style="stop-color:#383249;stop-opacity:1;" offset="0.695312"/><stop style="stop-color:#373249;stop-opacity:1;" offset="0.699219"/><stop style="stop-color:#36324a;stop-opacity:1;" offset="0.703125"/><stop style="stop-color:#35324a;stop-opacity:1;" offset="0.707031"/><stop style="stop-color:#35324a;stop-opacity:1;" offset="0.710937"/><stop style="stop-color:#34324a;stop-opacity:1;" offset="0.714844"/><stop style="stop-color:#33324a;stop-opacity:1;" offset="0.71875"/><stop style="stop-color:#32324b;stop-opacity:1;" offset="0.722656"/><stop style="stop-color:#31324b;stop-opacity:1;" offset="0.726562"/><stop style="stop-color:#30324b;stop-opacity:1;" offset="0.730469"/><stop style="stop-color:#30324b;stop-opacity:1;" offset="0.734375"/><stop style="stop-color:#2f324b;stop-opacity:1;" offset="0.738281"/><stop style="stop-color:#2e324c;stop-opacity:1;" offset="0.742188"/><stop style="stop-color:#2d324c;stop-opacity:1;" offset="0.746094"/><stop style="stop-color:#2c324c;stop-opacity:1;" offset="0.75"/><stop style="stop-color:#2b324c;stop-opacity:1;" offset="0.753906"/><stop style="stop-color:#2a324c;stop-opacity:1;" offset="0.757812"/><stop style="stop-color:#2a324c;stop-opacity:1;" offset="0.761719"/><stop style="stop-color:#29324d;stop-opacity:1;" offset="0.765625"/><stop style="stop-color:#28324d;stop-opacity:1;" offset="0.769531"/><stop style="stop-color:#27314d;stop-opacity:1;" offset="0.773438"/><stop style="stop-color:#26314d;stop-opacity:1;" offset="0.777344"/><stop style="stop-color:#25314d;stop-opacity:1;" offset="0.78125"/><stop style="stop-color:#25314e;stop-opacity:1;" offset="0.785156"/><stop style="stop-color:#24314e;stop-opacity:1;" offset="0.789063"/><stop style="stop-color:#23314e;stop-opacity:1;" offset="0.792969"/><stop style="stop-color:#22314e;stop-opacity:1;" offset="0.796875"/><stop style="stop-color:#21314e;stop-opacity:1;" offset="0.800781"/><stop style="stop-color:#20314f;stop-opacity:1;" offset="0.804688"/><stop style="stop-color:#20314f;stop-opacity:1;" offset="0.808594"/><stop style="stop-color:#1f314f;stop-opacity:1;" offset="0.8125"/><stop style="stop-color:#1e314f;stop-opacity:1;" offset="0.816406"/><stop style="stop-color:#1d314f;stop-opacity:1;" offset="0.820313"/><stop style="stop-color:#1c3150;stop-opacity:1;" offset="0.824219"/><stop style="stop-color:#1b3150;stop-opacity:1;" offset="0.828125"/><stop style="stop-color:#1b3150;stop-opacity:1;" offset="0.832031"/><stop style="stop-color:#1a3150;stop-opacity:1;" offset="0.835938"/><stop style="stop-color:#1a3150;stop-opacity:1;" offset="0.84375"/><stop style="stop-color:#1a3150;stop-opacity:1;" offset="0.875"/><stop style="stop-color:#1a3150;stop-opacity:1;" offset="1"/></linearGradient><clipPath id="24833d6a39"><path d="M 34 6 L 36 6 L 36 9 L 34 9 Z M 34 6 "/></clipPath><clipPath id="0f5aea366d"><path d="M 35.628906 7.476562 C 35.628906 7.699219 35.550781 7.886719 35.394531 8.039062 C 35.238281 8.195312 35.050781 8.273438 34.832031 8.273438 C 34.613281 8.273438 34.425781 8.195312 34.269531 8.039062 C 34.113281 7.886719 34.039062 7.699219 34.039062 7.476562 C 34.039062 7.257812 34.113281 7.070312 34.269531 6.917969 C 34.425781 6.761719 34.613281 6.683594 34.832031 6.683594 C 35.050781 6.683594 35.238281 6.761719 35.394531 6.917969 C 35.550781 7.070312 35.628906 7.257812 35.628906 7.476562 Z M 35.628906 7.476562 "/></clipPath><linearGradient x1="17.136328" gradientTransform="matrix(0.317995,0,0,0.317726,29.108445,2.903228)" y1="11.432949" x2="18.8326" gradientUnits="userSpaceOnUse" y2="17.375916" id="eb1f02cfe6"><stop style="stop-color:#b5372d;stop-opacity:1;" offset="0"/><stop style="stop-color:#b4372d;stop-opacity:1;" offset="0.03125"/><stop style="stop-color:#b4372d;stop-opacity:1;" offset="0.0625"/><stop style="stop-color:#b3372d;stop-opacity:1;" offset="0.09375"/><stop style="stop-color:#b2372d;stop-opacity:1;" offset="0.125"/><stop style="stop-color:#b2372d;stop-opacity:1;" offset="0.15625"/><stop style="stop-color:#b1372e;stop-opacity:1;" offset="0.1875"/><stop style="stop-color:#b0372e;stop-opacity:1;" offset="0.21875"/><stop style="stop-color:#b0372e;stop-opacity:1;" offset="0.222047"/><stop style="stop-color:#af372e;stop-opacity:1;" offset="0.25"/><stop style="stop-color:#af372e;stop-opacity:1;" offset="0.28125"/><stop style="stop-color:#ae372e;stop-opacity:1;" offset="0.3125"/><stop style="stop-color:#ae372e;stop-opacity:1;" offset="0.34375"/><stop style="stop-color:#ad372e;stop-opacity:1;" offset="0.375"/><stop style="stop-color:#ac372f;stop-opacity:1;" offset="0.40625"/><stop style="stop-color:#ac372f;stop-opacity:1;" offset="0.4375"/><stop style="stop-color:#ab372f;stop-opacity:1;" offset="0.46875"/><stop style="stop-color:#aa372f;stop-opacity:1;" offset="0.5"/><stop style="stop-color:#aa372f;stop-opacity:1;" offset="0.53125"/><stop style="stop-color:#a9372f;stop-opacity:1;" offset="0.5625"/><stop style="stop-color:#a8372f;stop-opacity:1;" offset="0.59375"/><stop style="stop-color:#a83730;stop-opacity:1;" offset="0.625"/><stop style="stop-color:#a73730;stop-opacity:1;" offset="0.65625"/><stop style="stop-color:#a63730;stop-opacity:1;" offset="0.6875"/><stop style="stop-color:#a63730;stop-opacity:1;" offset="0.71875"/><stop style="stop-color:#a53730;stop-opacity:1;" offset="0.75"/><stop style="stop-color:#a53730;stop-opacity:1;" offset="0.777953"/><stop style="stop-color:#a43730;stop-opacity:1;" offset="0.78125"/><stop style="stop-color:#a43731;stop-opacity:1;" offset="0.8125"/><stop style="stop-color:#a33731;stop-opacity:1;" offset="0.84375"/><stop style="stop-color:#a33731;stop-opacity:1;" offset="0.875"/><stop style="stop-color:#a23731;stop-opacity:1;" offset="0.90625"/><stop style="stop-color:#a13631;stop-opacity:1;" offset="0.9375"/><stop style="stop-color:#a13631;stop-opacity:1;" offset="0.96875"/><stop style="stop-color:#a03631;stop-opacity:1;" offset="1"/></linearGradient></defs><g id="40fff8c543"><path style=" stroke:none;fill-rule:nonzero;fill:#1a3150;fill-opacity:1;" d="M 60.683594 8.8125 C 60.335938 8.398438 59.828125 8.175781 59.09375 8.175781 C 58.363281 8.175781 58.585938 8.210938 58.363281 8.273438 C 58.140625 8.335938 57.949219 8.433594 57.792969 8.558594 C 57.632812 8.6875 57.472656 8.8125 57.347656 8.972656 C 57.21875 9.097656 57.125 9.226562 57.058594 9.351562 L 57.058594 5.570312 C 56.996094 5.570312 56.933594 5.570312 56.835938 5.570312 C 56.742188 5.570312 56.679688 5.570312 56.648438 5.570312 C 56.613281 5.570312 56.519531 5.570312 56.457031 5.570312 C 56.359375 5.570312 56.296875 5.570312 56.265625 5.570312 L 56.265625 14.53125 C 56.328125 14.53125 56.390625 14.53125 56.488281 14.53125 C 56.582031 14.53125 56.648438 14.53125 56.679688 14.53125 C 56.710938 14.53125 56.804688 14.53125 56.871094 14.53125 C 56.964844 14.53125 57.027344 14.53125 57.058594 14.53125 L 57.058594 11.386719 C 57.058594 10.972656 57.125 10.625 57.21875 10.304688 C 57.316406 9.988281 57.472656 9.734375 57.632812 9.542969 C 57.824219 9.351562 58.015625 9.195312 58.269531 9.066406 C 58.523438 8.972656 58.777344 8.910156 59.0625 8.910156 C 59.476562 8.910156 59.828125 9.066406 60.050781 9.351562 C 60.273438 9.640625 60.398438 10.148438 60.398438 10.816406 L 60.398438 14.5 C 60.460938 14.5 60.527344 14.5 60.621094 14.5 C 60.71875 14.5 60.78125 14.5 60.8125 14.5 C 60.84375 14.5 60.941406 14.5 61.003906 14.5 C 61.097656 14.5 61.164062 14.5 61.195312 14.5 L 61.195312 10.558594 C 61.195312 9.796875 61.035156 9.195312 60.683594 8.75 Z M 60.683594 8.8125 "/><path style=" stroke:none;fill-rule:nonzero;fill:#1a3150;fill-opacity:1;" d="M 66.855469 8.273438 C 66.757812 8.273438 66.695312 8.273438 66.664062 8.273438 C 66.632812 8.273438 66.566406 8.273438 66.472656 8.273438 C 66.378906 8.273438 66.3125 8.273438 66.25 8.273438 L 66.25 13.769531 C 66.089844 13.800781 65.902344 13.863281 65.710938 13.898438 C 65.488281 13.898438 65.265625 13.929688 65.011719 13.929688 C 64.753906 13.929688 64.40625 13.929688 64.152344 13.832031 C 63.898438 13.769531 63.707031 13.675781 63.515625 13.515625 C 63.355469 13.355469 63.199219 13.132812 63.132812 12.878906 C 63.039062 12.59375 63.007812 12.246094 63.007812 11.800781 L 63.007812 8.304688 C 62.941406 8.304688 62.878906 8.304688 62.816406 8.304688 C 62.71875 8.304688 62.65625 8.304688 62.625 8.304688 C 62.59375 8.304688 62.53125 8.304688 62.433594 8.304688 C 62.339844 8.304688 62.273438 8.304688 62.210938 8.304688 L 62.210938 11.863281 C 62.210938 12.433594 62.273438 12.910156 62.433594 13.292969 C 62.59375 13.675781 62.785156 13.960938 63.039062 14.152344 C 63.292969 14.375 63.578125 14.5 63.929688 14.5625 C 64.277344 14.628906 64.628906 14.660156 65.011719 14.660156 C 65.390625 14.660156 65.773438 14.660156 66.15625 14.5625 C 66.535156 14.5 66.855469 14.4375 67.171875 14.339844 L 67.171875 8.273438 C 67.109375 8.273438 67.046875 8.273438 66.980469 8.273438 Z M 66.855469 8.273438 "/><path style=" stroke:none;fill-rule:nonzero;fill:#1a3150;fill-opacity:1;" d="M 70.925781 8.304688 C 70.859375 8.304688 70.828125 8.304688 70.765625 8.304688 L 70.636719 8.304688 C 70.160156 8.304688 69.78125 8.398438 69.460938 8.621094 C 69.175781 8.8125 68.953125 9.066406 68.792969 9.320312 C 68.792969 9.195312 68.792969 9.035156 68.792969 8.84375 C 68.792969 8.652344 68.792969 8.464844 68.761719 8.335938 C 68.699219 8.335938 68.636719 8.335938 68.570312 8.335938 C 68.476562 8.335938 68.347656 8.335938 68.222656 8.335938 C 68.160156 8.335938 68.09375 8.335938 68.03125 8.335938 L 68.03125 14.5625 C 68.09375 14.5625 68.160156 14.5625 68.253906 14.5625 C 68.347656 14.5625 68.414062 14.5625 68.445312 14.5625 C 68.476562 14.5625 68.570312 14.5625 68.636719 14.5625 C 68.730469 14.5625 68.792969 14.5625 68.824219 14.5625 L 68.824219 11.355469 C 68.824219 10.558594 68.984375 9.957031 69.335938 9.640625 C 69.652344 9.289062 70.097656 9.128906 70.636719 9.128906 L 70.765625 9.128906 C 70.796875 9.128906 70.859375 9.128906 70.925781 9.128906 C 70.925781 9.003906 70.957031 8.875 70.957031 8.75 C 70.957031 8.621094 70.957031 8.496094 70.925781 8.367188 Z M 70.925781 8.304688 "/><path style=" stroke:none;fill-rule:nonzero;fill:#1a3150;fill-opacity:1;" d="M 73.628906 8.144531 C 73.308594 8.144531 72.992188 8.144531 72.671875 8.210938 C 72.355469 8.242188 72.101562 8.304688 71.878906 8.367188 C 71.878906 8.496094 71.878906 8.652344 71.910156 8.78125 C 71.910156 8.910156 71.972656 9.035156 72.007812 9.097656 C 72.230469 9.035156 72.449219 8.972656 72.738281 8.941406 C 72.992188 8.910156 73.308594 8.875 73.628906 8.875 C 74.105469 8.875 74.488281 9.003906 74.742188 9.257812 C 74.996094 9.511719 75.121094 9.894531 75.121094 10.433594 L 75.121094 10.78125 C 74.996094 10.78125 74.804688 10.75 74.613281 10.71875 C 74.390625 10.71875 74.136719 10.71875 73.851562 10.71875 C 73.5625 10.71875 73.117188 10.75 72.832031 10.847656 C 72.515625 10.941406 72.261719 11.070312 72.039062 11.257812 C 71.816406 11.449219 71.625 11.640625 71.496094 11.894531 C 71.371094 12.148438 71.304688 12.433594 71.304688 12.785156 C 71.304688 13.453125 71.527344 13.960938 71.972656 14.246094 C 72.417969 14.53125 73.023438 14.691406 73.753906 14.691406 C 74.488281 14.691406 74.519531 14.691406 74.898438 14.59375 C 75.3125 14.53125 75.664062 14.46875 75.949219 14.4375 L 75.949219 10.339844 C 75.949219 9.605469 75.757812 9.035156 75.375 8.71875 C 74.996094 8.367188 74.390625 8.210938 73.628906 8.210938 Z M 75.121094 11.511719 L 75.121094 13.800781 C 74.929688 13.832031 74.707031 13.863281 74.488281 13.898438 C 74.265625 13.898438 74.042969 13.929688 73.785156 13.929688 C 73.53125 13.929688 73.40625 13.929688 73.214844 13.898438 C 73.023438 13.898438 72.832031 13.800781 72.671875 13.738281 C 72.515625 13.640625 72.386719 13.546875 72.292969 13.386719 C 72.195312 13.230469 72.132812 13.007812 72.132812 12.753906 C 72.132812 12.339844 72.292969 12.023438 72.609375 11.800781 C 72.929688 11.578125 73.40625 11.449219 74.007812 11.449219 C 74.613281 11.449219 74.390625 11.449219 74.613281 11.449219 C 74.804688 11.449219 74.996094 11.480469 75.121094 11.511719 Z M 75.121094 11.511719 "/><path style=" stroke:none;fill-rule:nonzero;fill:#1a3150;fill-opacity:1;" d="M 80.65625 8.6875 C 80.273438 8.335938 79.667969 8.175781 78.90625 8.175781 C 78.144531 8.175781 78.269531 8.175781 77.953125 8.242188 C 77.632812 8.273438 77.378906 8.335938 77.15625 8.398438 C 77.15625 8.527344 77.15625 8.6875 77.1875 8.8125 C 77.1875 8.941406 77.253906 9.066406 77.285156 9.128906 C 77.507812 9.066406 77.730469 9.003906 78.015625 8.972656 C 78.269531 8.941406 78.589844 8.910156 78.90625 8.910156 C 79.382812 8.910156 79.765625 9.035156 80.019531 9.289062 C 80.273438 9.542969 80.402344 9.925781 80.402344 10.464844 L 80.402344 10.816406 C 80.273438 10.816406 80.082031 10.78125 79.890625 10.75 C 79.667969 10.75 79.414062 10.75 79.128906 10.75 C 78.84375 10.75 78.398438 10.78125 78.113281 10.878906 C 77.792969 10.972656 77.539062 11.101562 77.316406 11.292969 C 77.09375 11.480469 76.902344 11.671875 76.777344 11.925781 C 76.648438 12.179688 76.585938 12.464844 76.585938 12.816406 C 76.585938 13.484375 76.808594 13.992188 77.253906 14.277344 C 77.699219 14.5625 78.300781 14.722656 79.035156 14.722656 C 79.765625 14.722656 79.796875 14.722656 80.179688 14.628906 C 80.59375 14.5625 80.941406 14.5 81.226562 14.46875 L 81.226562 10.371094 C 81.226562 9.640625 81.035156 9.066406 80.65625 8.75 Z M 77.539062 13.355469 C 77.445312 13.199219 77.378906 12.976562 77.378906 12.722656 C 77.378906 12.308594 77.539062 11.988281 77.855469 11.769531 C 78.175781 11.546875 78.652344 11.417969 79.257812 11.417969 C 79.859375 11.417969 79.636719 11.417969 79.859375 11.417969 C 80.050781 11.417969 80.242188 11.449219 80.371094 11.480469 L 80.371094 13.769531 C 80.179688 13.800781 79.957031 13.832031 79.734375 13.863281 C 79.511719 13.863281 79.289062 13.898438 79.035156 13.898438 C 78.777344 13.898438 78.652344 13.898438 78.460938 13.863281 C 78.269531 13.863281 78.078125 13.769531 77.921875 13.707031 C 77.761719 13.609375 77.632812 13.515625 77.539062 13.355469 Z M 77.539062 13.355469 "/><path style=" stroke:none;fill-rule:nonzero;fill:#1a3150;fill-opacity:1;" d="M 52.988281 9.605469 L 52.988281 10.558594 C 53.753906 10.878906 54.355469 11.257812 54.355469 12.085938 C 54.355469 12.910156 53.59375 13.769531 52.480469 13.769531 C 51.367188 13.769531 50.730469 13.324219 50.160156 12.402344 L 49.363281 13.007812 C 50.097656 14.023438 51.082031 14.628906 52.511719 14.628906 C 53.945312 14.628906 55.375 13.386719 55.375 12.085938 C 55.375 10.78125 54.230469 10.019531 53.054688 9.605469 Z M 52.988281 9.605469 "/><path style=" stroke:none;fill-rule:nonzero;fill:#c93828;fill-opacity:1;" d="M 52.195312 10.273438 C 52.226562 10.273438 52.289062 10.273438 52.320312 10.304688 L 52.320312 9.351562 C 51.433594 9.035156 50.667969 8.652344 50.667969 7.796875 C 50.667969 6.9375 51.433594 6.335938 52.417969 6.335938 C 53.402344 6.335938 53.976562 6.683594 54.421875 7.382812 L 55.183594 6.8125 C 54.546875 5.984375 53.691406 5.476562 52.449219 5.476562 C 51.210938 5.476562 49.714844 6.492188 49.714844 7.765625 C 49.714844 9.035156 50.988281 9.828125 52.195312 10.242188 Z M 52.195312 10.273438 "/><path style=" stroke:none;fill-rule:nonzero;fill:#c93828;fill-opacity:1;" d="M 52.257812 7.128906 C 52.257812 7.542969 51.910156 7.890625 51.496094 7.890625 C 51.082031 7.890625 50.730469 7.542969 50.730469 7.128906 C 50.730469 6.714844 51.082031 6.367188 51.496094 6.367188 C 51.910156 6.367188 52.257812 6.714844 52.257812 7.128906 Z M 52.257812 7.128906 "/><path style=" stroke:none;fill-rule:nonzero;fill:#1a3150;fill-opacity:1;" d="M 54.292969 12.847656 C 54.292969 13.261719 53.945312 13.609375 53.53125 13.609375 C 53.117188 13.609375 52.765625 13.261719 52.765625 12.847656 C 52.765625 12.433594 53.117188 12.085938 53.53125 12.085938 C 53.945312 12.085938 54.292969 12.433594 54.292969 12.847656 Z M 54.292969 12.847656 "/><path style=" stroke:none;fill-rule:nonzero;fill:#1a3150;fill-opacity:1;" d="M 50.574219 19.742188 C 50.097656 19.742188 49.777344 19.617188 49.585938 19.328125 C 49.300781 18.917969 49.492188 18.375 49.492188 18.34375 L 49.839844 18.472656 C 49.839844 18.472656 49.714844 18.886719 49.90625 19.140625 C 50.03125 19.296875 50.253906 19.394531 50.605469 19.394531 L 51.464844 19.394531 C 51.527344 19.394531 51.875 19.363281 51.875 18.949219 C 51.875 18.886719 51.875 18.503906 51.398438 18.503906 L 50.574219 18.503906 L 50.574219 17.804688 C 50.574219 17.582031 50.765625 17.234375 51.304688 17.234375 C 51.84375 17.234375 52.035156 17.390625 52.035156 17.773438 L 51.6875 17.773438 C 51.6875 17.613281 51.335938 17.613281 51.304688 17.613281 C 50.988281 17.613281 50.953125 17.804688 50.921875 17.867188 L 50.921875 18.1875 L 51.367188 18.1875 C 52.066406 18.1875 52.226562 18.789062 52.226562 19.011719 C 52.226562 19.617188 51.71875 19.804688 51.464844 19.839844 L 50.574219 19.839844 Z M 50.574219 19.742188 "/><path style=" stroke:none;fill-rule:nonzero;fill:#1a3150;fill-opacity:1;" d="M 52.957031 19.742188 C 52.832031 19.742188 52.703125 19.742188 52.542969 19.679688 L 52.640625 19.328125 C 52.800781 19.394531 53.054688 19.425781 53.210938 19.328125 C 53.371094 19.203125 53.371094 18.980469 53.371094 18.980469 L 53.371094 17.421875 L 53.722656 17.421875 L 53.722656 18.980469 C 53.722656 18.980469 53.722656 19.394531 53.402344 19.617188 C 53.277344 19.710938 53.117188 19.742188 52.925781 19.742188 Z M 52.957031 19.742188 "/><path style=" stroke:none;fill-rule:nonzero;fill:#1a3150;fill-opacity:1;" d="M 55.152344 19.742188 C 54.960938 19.742188 54.800781 19.710938 54.769531 19.679688 L 54.867188 19.328125 C 54.992188 19.363281 55.3125 19.425781 55.46875 19.296875 C 55.535156 19.265625 55.566406 19.203125 55.597656 19.105469 L 55.183594 19.105469 C 54.578125 19.105469 54.355469 18.535156 54.324219 18.21875 C 54.324219 17.488281 54.867188 17.265625 55.121094 17.234375 L 55.945312 17.234375 C 55.945312 17.234375 55.945312 18.726562 55.945312 18.726562 L 77.410156 18.726562 C 77.445312 18.726562 77.824219 18.726562 77.824219 18.441406 L 78.175781 18.441406 C 78.175781 18.949219 77.667969 19.074219 77.410156 19.074219 L 55.914062 19.074219 C 55.882812 19.265625 55.789062 19.425781 55.660156 19.550781 C 55.503906 19.679688 55.3125 19.710938 55.121094 19.710938 Z M 55.152344 17.613281 C 55.089844 17.613281 54.707031 17.675781 54.707031 18.21875 C 54.707031 18.25 54.769531 18.757812 55.183594 18.757812 L 55.597656 18.757812 L 55.597656 17.613281 Z M 55.152344 17.613281 "/><path style=" stroke:none;fill-rule:nonzero;fill:#1a3150;fill-opacity:1;" d="M 80.335938 19.140625 L 80.148438 19.140625 C 79.890625 19.140625 79.703125 19.074219 79.542969 18.917969 C 79.351562 18.726562 79.351562 18.472656 79.351562 18.472656 L 79.351562 17.421875 L 79.703125 17.421875 L 79.703125 18.472656 C 79.703125 18.535156 79.734375 18.789062 80.113281 18.789062 C 80.179688 18.789062 80.273438 18.789062 80.464844 18.789062 C 80.527344 18.789062 80.8125 18.789062 80.8125 18.472656 L 80.8125 17.421875 L 81.164062 17.421875 L 81.164062 18.472656 C 81.164062 18.949219 80.71875 19.140625 80.433594 19.140625 C 80.371094 19.140625 80.335938 19.140625 80.273438 19.140625 Z M 80.335938 19.140625 "/><path style=" stroke:none;fill-rule:nonzero;fill:#1a3150;fill-opacity:1;" d="M 78.84375 19.140625 L 78.652344 19.140625 C 78.398438 19.140625 78.207031 19.074219 78.046875 18.917969 C 77.855469 18.726562 77.855469 18.472656 77.855469 18.472656 L 77.855469 17.421875 L 78.207031 17.421875 L 78.207031 18.472656 C 78.207031 18.535156 78.238281 18.789062 78.621094 18.789062 C 78.683594 18.789062 78.777344 18.789062 78.96875 18.789062 C 79.035156 18.789062 79.320312 18.789062 79.320312 18.472656 L 79.320312 17.421875 L 79.667969 17.421875 L 79.667969 18.472656 C 79.667969 18.949219 79.222656 19.140625 78.9375 19.140625 C 78.875 19.140625 78.84375 19.140625 78.777344 19.140625 Z M 78.84375 19.140625 "/><path style=" stroke:none;fill-rule:nonzero;fill:#c93828;fill-opacity:1;" d="M 78.9375 16.628906 L 79.351562 16.628906 L 79.351562 17.042969 L 78.9375 17.042969 Z M 78.9375 16.628906 "/><path style=" stroke:none;fill-rule:nonzero;fill:#c93828;fill-opacity:1;" d="M 79.734375 16.628906 L 80.148438 16.628906 L 80.148438 17.042969 L 79.734375 17.042969 Z M 79.734375 16.628906 "/><path style=" stroke:none;fill-rule:nonzero;fill:#c93828;fill-opacity:1;" d="M 79.320312 15.992188 L 79.734375 15.992188 L 79.734375 16.40625 L 79.320312 16.40625 Z M 79.320312 15.992188 "/><path style=" stroke:none;fill-rule:nonzero;fill:#c93828;fill-opacity:1;" d="M 59.128906 18.027344 C 59.128906 18.1875 59.03125 18.34375 58.746094 18.34375 C 58.460938 18.34375 58.394531 18.28125 58.363281 18.089844 L 58.523438 18.027344 C 58.523438 18.089844 58.617188 18.1875 58.777344 18.1875 C 58.9375 18.1875 59 18.121094 59 18.027344 C 59 17.933594 58.871094 17.867188 58.683594 17.835938 C 58.460938 17.773438 58.425781 17.675781 58.425781 17.519531 C 58.425781 17.359375 58.585938 17.199219 58.777344 17.199219 C 58.96875 17.199219 59.0625 17.296875 59.09375 17.421875 L 58.9375 17.421875 C 58.9375 17.421875 58.871094 17.328125 58.746094 17.328125 C 58.617188 17.328125 58.554688 17.390625 58.554688 17.488281 C 58.554688 17.582031 58.683594 17.644531 58.839844 17.675781 C 59.0625 17.742188 59.160156 17.804688 59.160156 17.964844 Z M 59.128906 18.027344 "/><path style=" stroke:none;fill-rule:nonzero;fill:#c93828;fill-opacity:1;" d="M 60.335938 17.265625 L 60.496094 17.265625 L 60.496094 18.34375 L 60.335938 18.34375 Z M 60.335938 17.265625 "/><path style=" stroke:none;fill-rule:nonzero;fill:#c93828;fill-opacity:1;" d="M 62.625 17.265625 L 62.625 18.34375 L 62.496094 18.34375 L 61.925781 17.550781 L 61.925781 18.34375 L 61.765625 18.34375 L 61.765625 17.265625 L 61.894531 17.265625 L 62.464844 18.058594 L 62.464844 17.265625 Z M 62.625 17.265625 "/><path style=" stroke:none;fill-rule:nonzero;fill:#c93828;fill-opacity:1;" d="M 64.722656 18.058594 L 64.851562 18.152344 C 64.753906 18.28125 64.597656 18.34375 64.40625 18.34375 C 64.089844 18.34375 63.867188 18.089844 63.867188 17.773438 C 63.867188 17.457031 64.089844 17.199219 64.40625 17.199219 C 64.722656 17.199219 64.722656 17.265625 64.851562 17.390625 L 64.722656 17.488281 C 64.660156 17.390625 64.566406 17.359375 64.40625 17.359375 C 64.152344 17.359375 64.023438 17.582031 64.023438 17.773438 C 64.023438 17.964844 64.152344 18.1875 64.40625 18.1875 C 64.660156 18.1875 64.628906 18.121094 64.722656 18.058594 Z M 64.722656 18.058594 "/><path style=" stroke:none;fill-rule:nonzero;fill:#c93828;fill-opacity:1;" d="M 66.664062 18.1875 L 66.664062 18.3125 L 66.058594 18.3125 L 66.058594 17.234375 L 66.664062 17.234375 L 66.664062 17.359375 L 66.21875 17.359375 L 66.21875 17.675781 L 66.632812 17.675781 L 66.632812 17.804688 L 66.21875 17.804688 L 66.21875 18.152344 L 66.664062 18.152344 Z M 66.664062 18.1875 "/><path style=" stroke:none;fill-rule:nonzero;fill:#c93828;fill-opacity:1;" d="M 70.035156 18.1875 L 70.035156 18.3125 L 69.367188 18.3125 L 69.367188 18.21875 C 69.460938 18.121094 69.492188 18.058594 69.589844 17.933594 C 69.714844 17.804688 69.84375 17.644531 69.84375 17.519531 C 69.84375 17.390625 69.78125 17.328125 69.683594 17.328125 C 69.589844 17.328125 69.527344 17.421875 69.492188 17.488281 L 69.335938 17.488281 C 69.367188 17.265625 69.527344 17.167969 69.683594 17.167969 C 69.84375 17.167969 70.003906 17.296875 70.003906 17.488281 C 70.003906 17.675781 69.84375 17.804688 69.558594 18.121094 L 70.003906 18.121094 Z M 70.035156 18.1875 "/><path style=" stroke:none;fill-rule:nonzero;fill:#c93828;fill-opacity:1;" d="M 72.101562 17.804688 C 72.101562 18.089844 71.972656 18.375 71.6875 18.375 C 71.402344 18.375 71.273438 18.089844 71.273438 17.804688 C 71.273438 17.519531 71.402344 17.234375 71.6875 17.234375 C 71.972656 17.234375 72.101562 17.519531 72.101562 17.804688 Z M 71.941406 17.804688 C 71.941406 17.613281 71.878906 17.390625 71.6875 17.390625 C 71.496094 17.390625 71.433594 17.613281 71.433594 17.804688 C 71.433594 17.996094 71.496094 18.21875 71.6875 18.21875 C 71.878906 18.21875 71.941406 17.996094 71.941406 17.804688 Z M 71.941406 17.804688 "/><path style=" stroke:none;fill-rule:nonzero;fill:#c93828;fill-opacity:1;" d="M 74.136719 17.804688 C 74.136719 18.089844 74.007812 18.375 73.722656 18.375 C 73.4375 18.375 73.308594 18.089844 73.308594 17.804688 C 73.308594 17.519531 73.4375 17.234375 73.722656 17.234375 C 74.007812 17.234375 74.136719 17.519531 74.136719 17.804688 Z M 73.976562 17.804688 C 73.976562 17.613281 73.914062 17.390625 73.722656 17.390625 C 73.53125 17.390625 73.46875 17.613281 73.46875 17.804688 C 73.46875 17.996094 73.53125 18.21875 73.722656 18.21875 C 73.914062 18.21875 73.976562 17.996094 73.976562 17.804688 Z M 73.976562 17.804688 "/><path style=" stroke:none;fill-rule:nonzero;fill:#c93828;fill-opacity:1;" d="M 75.726562 17.265625 L 75.726562 18.34375 L 75.566406 18.34375 L 75.566406 17.457031 L 75.34375 17.582031 L 75.28125 17.457031 L 75.597656 17.234375 L 75.695312 17.234375 Z M 75.726562 17.265625 "/><path style=" stroke:none;fill-rule:nonzero;fill:#c93828;fill-opacity:1;" d="M 50.667969 22.253906 L 50.859375 22.378906 C 50.699219 22.570312 50.476562 22.664062 50.222656 22.664062 C 49.746094 22.664062 49.398438 22.316406 49.398438 21.839844 C 49.398438 21.363281 49.746094 21.011719 50.222656 21.011719 C 50.699219 21.011719 50.699219 21.140625 50.859375 21.300781 L 50.667969 21.425781 C 50.574219 21.300781 50.414062 21.203125 50.222656 21.203125 C 49.839844 21.203125 49.652344 21.523438 49.652344 21.808594 C 49.652344 22.09375 49.875 22.410156 50.222656 22.410156 C 50.574219 22.410156 50.574219 22.316406 50.667969 22.1875 Z M 50.667969 22.253906 "/><path style=" stroke:none;fill-rule:nonzero;fill:#c93828;fill-opacity:1;" d="M 52.226562 22.0625 C 52.226562 22.410156 51.972656 22.664062 51.621094 22.664062 C 51.273438 22.664062 51.019531 22.378906 51.019531 22.0625 C 51.019531 21.746094 51.273438 21.457031 51.621094 21.457031 C 51.972656 21.457031 52.226562 21.746094 52.226562 22.0625 Z M 52.003906 22.0625 C 52.003906 21.839844 51.84375 21.648438 51.621094 21.648438 C 51.398438 21.648438 51.242188 21.808594 51.242188 22.0625 C 51.242188 22.316406 51.398438 22.476562 51.621094 22.476562 C 51.84375 22.476562 52.003906 22.316406 52.003906 22.0625 Z M 52.003906 22.0625 "/><path style=" stroke:none;fill-rule:nonzero;fill:#c93828;fill-opacity:1;" d="M 54.070312 21.902344 L 54.070312 22.664062 L 53.847656 22.664062 L 53.847656 21.96875 C 53.847656 21.808594 53.753906 21.679688 53.59375 21.679688 C 53.433594 21.679688 53.339844 21.808594 53.339844 21.96875 L 53.339844 22.664062 L 53.117188 22.664062 L 53.117188 21.96875 C 53.117188 21.808594 53.023438 21.679688 52.863281 21.679688 C 52.703125 21.679688 52.609375 21.808594 52.609375 21.96875 L 52.609375 22.664062 L 52.386719 22.664062 L 52.386719 21.488281 L 52.609375 21.488281 L 52.609375 21.617188 C 52.671875 21.523438 52.765625 21.457031 52.925781 21.457031 C 53.085938 21.457031 53.179688 21.523438 53.277344 21.648438 C 53.339844 21.554688 53.46875 21.457031 53.65625 21.457031 C 53.847656 21.457031 54.070312 21.648438 54.070312 21.871094 Z M 54.070312 21.902344 "/><path style=" stroke:none;fill-rule:nonzero;fill:#c93828;fill-opacity:1;" d="M 55.597656 22.0625 C 55.597656 22.378906 55.375 22.664062 55.023438 22.664062 C 54.675781 22.664062 54.675781 22.570312 54.613281 22.476562 L 54.613281 23.078125 L 54.390625 23.078125 L 54.390625 21.488281 L 54.613281 21.488281 L 54.613281 21.648438 C 54.707031 21.554688 54.835938 21.457031 55.023438 21.457031 C 55.375 21.457031 55.597656 21.777344 55.597656 22.0625 Z M 55.375 22.0625 C 55.375 21.839844 55.214844 21.648438 54.992188 21.648438 C 54.769531 21.648438 54.578125 21.839844 54.578125 22.0625 C 54.578125 22.285156 54.738281 22.476562 54.992188 22.476562 C 55.246094 22.476562 55.375 22.285156 55.375 22.0625 Z M 55.375 22.0625 "/><path style=" stroke:none;fill-rule:nonzero;fill:#c93828;fill-opacity:1;" d="M 56.742188 21.96875 L 56.742188 22.664062 L 56.519531 22.664062 L 56.519531 22.507812 C 56.457031 22.601562 56.328125 22.699219 56.136719 22.699219 C 55.945312 22.699219 55.726562 22.570312 55.726562 22.347656 C 55.726562 22 56.167969 21.96875 56.328125 21.96875 L 56.519531 21.96875 C 56.519531 21.777344 56.488281 21.648438 56.234375 21.648438 C 55.980469 21.648438 55.980469 21.710938 55.945312 21.746094 L 55.789062 21.617188 C 55.914062 21.488281 56.105469 21.425781 56.265625 21.425781 C 56.613281 21.425781 56.710938 21.648438 56.710938 21.902344 Z M 56.550781 22.125 L 56.457031 22.125 C 56.234375 22.125 55.945312 22.125 55.945312 22.316406 C 55.945312 22.507812 56.011719 22.507812 56.203125 22.507812 C 56.390625 22.507812 56.519531 22.378906 56.550781 22.316406 Z M 56.550781 22.125 "/><path style=" stroke:none;fill-rule:nonzero;fill:#c93828;fill-opacity:1;" d="M 58.078125 21.933594 L 58.078125 22.664062 L 57.855469 22.664062 L 57.855469 22 C 57.855469 21.839844 57.792969 21.679688 57.570312 21.679688 C 57.347656 21.679688 57.25 21.871094 57.25 22 L 57.25 22.664062 L 57.027344 22.664062 L 57.027344 21.488281 L 57.25 21.488281 L 57.25 21.648438 C 57.316406 21.554688 57.441406 21.457031 57.601562 21.457031 C 57.855469 21.457031 58.046875 21.679688 58.046875 21.933594 Z M 58.078125 21.933594 "/><path style=" stroke:none;fill-rule:nonzero;fill:#c93828;fill-opacity:1;" d="M 59.351562 21.488281 L 58.714844 23.078125 L 58.492188 23.078125 L 58.683594 22.570312 L 58.203125 21.457031 L 58.425781 21.457031 L 58.777344 22.285156 L 59.09375 21.457031 L 59.316406 21.457031 Z M 59.351562 21.488281 "/><path style=" stroke:none;fill-rule:nonzero;fill:#c93828;fill-opacity:1;" d="M 60.398438 21.269531 L 60.398438 21.746094 L 61.003906 21.746094 L 61.003906 21.96875 L 60.398438 21.96875 L 60.398438 22.664062 L 60.175781 22.664062 L 60.175781 21.078125 L 61.097656 21.078125 L 61.097656 21.300781 L 60.398438 21.300781 Z M 60.398438 21.269531 "/><path style=" stroke:none;fill-rule:nonzero;fill:#c93828;fill-opacity:1;" d="M 62.433594 22.0625 C 62.433594 22.410156 62.179688 22.664062 61.832031 22.664062 C 61.480469 22.664062 61.226562 22.378906 61.226562 22.0625 C 61.226562 21.746094 61.480469 21.457031 61.832031 21.457031 C 62.179688 21.457031 62.433594 21.746094 62.433594 22.0625 Z M 62.210938 22.0625 C 62.210938 21.839844 62.050781 21.648438 61.832031 21.648438 C 61.609375 21.648438 61.449219 21.808594 61.449219 22.0625 C 61.449219 22.316406 61.609375 22.476562 61.832031 22.476562 C 62.050781 22.476562 62.210938 22.316406 62.210938 22.0625 Z M 62.210938 22.0625 "/><path style=" stroke:none;fill-rule:nonzero;fill:#c93828;fill-opacity:1;" d="M 63.261719 21.457031 L 63.261719 21.679688 C 62.910156 21.648438 62.878906 21.902344 62.878906 22.125 L 62.878906 22.632812 L 62.65625 22.632812 L 62.65625 21.457031 L 62.878906 21.457031 L 62.878906 21.648438 C 62.941406 21.488281 63.101562 21.425781 63.261719 21.425781 Z M 63.261719 21.457031 "/><path style=" stroke:none;fill-rule:nonzero;fill:#c93828;fill-opacity:1;" d="M 65.136719 21.902344 L 65.136719 22.664062 L 64.914062 22.664062 L 64.914062 21.96875 C 64.914062 21.808594 64.820312 21.679688 64.660156 21.679688 C 64.5 21.679688 64.40625 21.808594 64.40625 21.96875 L 64.40625 22.664062 L 64.183594 22.664062 L 64.183594 21.96875 C 64.183594 21.808594 64.089844 21.679688 63.929688 21.679688 C 63.769531 21.679688 63.675781 21.808594 63.675781 21.96875 L 63.675781 22.664062 L 63.453125 22.664062 L 63.453125 21.488281 L 63.675781 21.488281 L 63.675781 21.617188 C 63.738281 21.523438 63.832031 21.457031 63.992188 21.457031 C 64.152344 21.457031 64.246094 21.523438 64.34375 21.648438 C 64.40625 21.554688 64.53125 21.457031 64.722656 21.457031 C 64.914062 21.457031 65.136719 21.648438 65.136719 21.871094 Z M 65.136719 21.902344 "/><path style=" stroke:none;fill-rule:nonzero;fill:#c93828;fill-opacity:1;" d="M 66.34375 21.96875 L 66.34375 22.664062 L 66.125 22.664062 L 66.125 22.507812 C 66.058594 22.601562 65.933594 22.699219 65.742188 22.699219 C 65.550781 22.699219 65.328125 22.570312 65.328125 22.347656 C 65.328125 22 65.773438 21.96875 65.933594 21.96875 L 66.125 21.96875 C 66.125 21.777344 66.089844 21.648438 65.835938 21.648438 C 65.582031 21.648438 65.582031 21.710938 65.550781 21.746094 L 65.390625 21.617188 C 65.519531 21.488281 65.710938 21.425781 65.867188 21.425781 C 66.21875 21.425781 66.3125 21.648438 66.3125 21.902344 Z M 66.15625 22.125 L 66.058594 22.125 C 65.835938 22.125 65.550781 22.125 65.550781 22.316406 C 65.550781 22.507812 65.613281 22.507812 65.804688 22.507812 C 65.996094 22.507812 66.125 22.378906 66.15625 22.316406 Z M 66.15625 22.125 "/><path style=" stroke:none;fill-rule:nonzero;fill:#c93828;fill-opacity:1;" d="M 66.917969 21.679688 L 66.917969 22.1875 C 66.917969 22.347656 66.917969 22.476562 67.109375 22.476562 C 67.300781 22.476562 67.171875 22.476562 67.203125 22.476562 L 67.203125 22.664062 C 67.203125 22.664062 67.140625 22.664062 67.078125 22.664062 C 66.824219 22.664062 66.726562 22.539062 66.726562 22.285156 L 66.726562 21.710938 L 66.535156 21.710938 L 66.535156 21.523438 L 66.726562 21.523438 L 66.726562 21.269531 L 66.949219 21.269531 L 66.949219 21.523438 L 67.203125 21.523438 L 67.203125 21.710938 L 66.949219 21.710938 Z M 66.917969 21.679688 "/><path style=" stroke:none;fill-rule:nonzero;fill:#c93828;fill-opacity:1;" d="M 67.425781 21.171875 C 67.425781 21.109375 67.492188 21.046875 67.554688 21.046875 C 67.617188 21.046875 67.679688 21.109375 67.679688 21.171875 C 67.679688 21.234375 67.617188 21.300781 67.554688 21.300781 C 67.492188 21.300781 67.425781 21.234375 67.425781 21.171875 Z M 67.457031 21.488281 L 67.679688 21.488281 L 67.679688 22.664062 L 67.457031 22.664062 Z M 67.457031 21.488281 "/><path style=" stroke:none;fill-rule:nonzero;fill:#c93828;fill-opacity:1;" d="M 69.113281 22.0625 C 69.113281 22.410156 68.859375 22.664062 68.507812 22.664062 C 68.160156 22.664062 67.902344 22.378906 67.902344 22.0625 C 67.902344 21.746094 68.160156 21.457031 68.507812 21.457031 C 68.859375 21.457031 69.113281 21.746094 69.113281 22.0625 Z M 68.890625 22.0625 C 68.890625 21.839844 68.730469 21.648438 68.507812 21.648438 C 68.285156 21.648438 68.125 21.808594 68.125 22.0625 C 68.125 22.316406 68.285156 22.476562 68.507812 22.476562 C 68.730469 22.476562 68.890625 22.316406 68.890625 22.0625 Z M 68.890625 22.0625 "/><path style=" stroke:none;fill-rule:nonzero;fill:#c93828;fill-opacity:1;" d="M 70.351562 21.933594 L 70.351562 22.664062 L 70.128906 22.664062 L 70.128906 22 C 70.128906 21.839844 70.066406 21.679688 69.84375 21.679688 C 69.621094 21.679688 69.527344 21.871094 69.527344 22 L 69.527344 22.664062 L 69.304688 22.664062 L 69.304688 21.488281 L 69.527344 21.488281 L 69.527344 21.648438 C 69.589844 21.554688 69.714844 21.457031 69.875 21.457031 C 70.128906 21.457031 70.320312 21.679688 70.320312 21.933594 Z M 70.351562 21.933594 "/><path style=" stroke:none;fill-rule:nonzero;fill:#c93828;fill-opacity:1;" d="M 72.324219 22.222656 C 72.324219 22.445312 72.164062 22.699219 71.75 22.699219 C 71.339844 22.699219 71.242188 22.601562 71.179688 22.347656 L 71.402344 22.285156 C 71.402344 22.378906 71.527344 22.507812 71.75 22.507812 C 71.972656 22.507812 72.070312 22.445312 72.070312 22.253906 C 72.070312 22.0625 71.878906 22.03125 71.625 21.96875 C 71.304688 21.902344 71.242188 21.710938 71.242188 21.523438 C 71.242188 21.332031 71.464844 21.078125 71.785156 21.078125 C 72.101562 21.078125 72.195312 21.203125 72.261719 21.425781 L 72.039062 21.488281 C 72.007812 21.394531 71.910156 21.300781 71.75 21.300781 C 71.59375 21.300781 71.464844 21.394531 71.464844 21.554688 C 71.464844 21.710938 71.65625 21.777344 71.878906 21.839844 C 72.195312 21.902344 72.324219 22.03125 72.324219 22.285156 Z M 72.324219 22.222656 "/><path style=" stroke:none;fill-rule:nonzero;fill:#c93828;fill-opacity:1;" d="M 72.546875 21.171875 C 72.546875 21.109375 72.609375 21.046875 72.671875 21.046875 C 72.738281 21.046875 72.800781 21.109375 72.800781 21.171875 C 72.800781 21.234375 72.738281 21.300781 72.671875 21.300781 C 72.609375 21.300781 72.546875 21.234375 72.546875 21.171875 Z M 72.546875 21.488281 L 72.769531 21.488281 L 72.769531 22.664062 L 72.546875 22.664062 Z M 72.546875 21.488281 "/><path style=" stroke:none;fill-rule:nonzero;fill:#c93828;fill-opacity:1;" d="M 74.675781 21.902344 L 74.675781 22.664062 L 74.453125 22.664062 L 74.453125 21.96875 C 74.453125 21.808594 74.359375 21.679688 74.199219 21.679688 C 74.042969 21.679688 73.945312 21.808594 73.945312 21.96875 L 73.945312 22.664062 L 73.722656 22.664062 L 73.722656 21.96875 C 73.722656 21.808594 73.628906 21.679688 73.46875 21.679688 C 73.308594 21.679688 73.214844 21.808594 73.214844 21.96875 L 73.214844 22.664062 L 72.992188 22.664062 L 72.992188 21.488281 L 73.214844 21.488281 L 73.214844 21.617188 C 73.277344 21.523438 73.375 21.457031 73.53125 21.457031 C 73.691406 21.457031 73.785156 21.523438 73.882812 21.648438 C 73.945312 21.554688 74.074219 21.457031 74.265625 21.457031 C 74.453125 21.457031 74.675781 21.648438 74.675781 21.871094 Z M 74.675781 21.902344 "/><path style=" stroke:none;fill-rule:nonzero;fill:#c93828;fill-opacity:1;" d="M 76.203125 22.0625 C 76.203125 22.378906 75.980469 22.664062 75.632812 22.664062 C 75.28125 22.664062 75.28125 22.570312 75.21875 22.476562 L 75.21875 23.078125 L 74.996094 23.078125 L 74.996094 21.488281 L 75.21875 21.488281 L 75.21875 21.648438 C 75.3125 21.554688 75.441406 21.457031 75.632812 21.457031 C 75.980469 21.457031 76.203125 21.777344 76.203125 22.0625 Z M 75.980469 22.0625 C 75.980469 21.839844 75.820312 21.648438 75.597656 21.648438 C 75.375 21.648438 75.1875 21.839844 75.1875 22.0625 C 75.1875 22.285156 75.34375 22.476562 75.597656 22.476562 C 75.855469 22.476562 75.980469 22.285156 75.980469 22.0625 Z M 75.980469 22.0625 "/><path style=" stroke:none;fill-rule:nonzero;fill:#c93828;fill-opacity:1;" d="M 76.425781 21.046875 L 76.648438 21.046875 L 76.648438 22.632812 L 76.425781 22.632812 Z M 76.425781 21.046875 "/><path style=" stroke:none;fill-rule:nonzero;fill:#c93828;fill-opacity:1;" d="M 76.933594 21.171875 C 76.933594 21.109375 77 21.046875 77.0625 21.046875 C 77.125 21.046875 77.1875 21.109375 77.1875 21.171875 C 77.1875 21.234375 77.125 21.300781 77.0625 21.300781 C 77 21.300781 76.933594 21.234375 76.933594 21.171875 Z M 76.933594 21.488281 L 77.15625 21.488281 L 77.15625 22.664062 L 76.933594 22.664062 Z M 76.933594 21.488281 "/><path style=" stroke:none;fill-rule:nonzero;fill:#c93828;fill-opacity:1;" d="M 77.761719 21.488281 L 78.015625 21.488281 L 78.015625 21.679688 L 77.761719 21.679688 L 77.761719 22.632812 L 77.539062 22.632812 L 77.539062 21.679688 L 77.347656 21.679688 L 77.347656 21.488281 L 77.539062 21.488281 C 77.539062 21.234375 77.632812 21.011719 77.953125 21.011719 C 78.269531 21.011719 78.015625 21.011719 78.015625 21.011719 L 78.015625 21.171875 C 78.015625 21.171875 77.984375 21.171875 77.953125 21.171875 C 77.761719 21.171875 77.730469 21.300781 77.730469 21.457031 Z M 77.761719 21.488281 "/><path style=" stroke:none;fill-rule:nonzero;fill:#c93828;fill-opacity:1;" d="M 78.238281 21.171875 C 78.238281 21.109375 78.300781 21.046875 78.367188 21.046875 C 78.429688 21.046875 78.492188 21.109375 78.492188 21.171875 C 78.492188 21.234375 78.429688 21.300781 78.367188 21.300781 C 78.300781 21.300781 78.238281 21.234375 78.238281 21.171875 Z M 78.269531 21.488281 L 78.492188 21.488281 L 78.492188 22.664062 L 78.269531 22.664062 Z M 78.269531 21.488281 "/><path style=" stroke:none;fill-rule:nonzero;fill:#c93828;fill-opacity:1;" d="M 79.828125 22.15625 L 78.90625 22.15625 C 78.9375 22.347656 79.066406 22.476562 79.320312 22.476562 C 79.574219 22.476562 79.574219 22.410156 79.636719 22.347656 L 79.796875 22.445312 C 79.703125 22.570312 79.511719 22.664062 79.320312 22.664062 C 78.9375 22.664062 78.683594 22.378906 78.683594 22.0625 C 78.683594 21.746094 78.9375 21.457031 79.289062 21.457031 C 79.636719 21.457031 79.890625 21.710938 79.859375 22.15625 Z M 79.636719 22 C 79.636719 21.808594 79.480469 21.679688 79.289062 21.679688 C 79.097656 21.679688 78.9375 21.808594 78.90625 22 Z M 79.636719 22 "/><path style=" stroke:none;fill-rule:nonzero;fill:#c93828;fill-opacity:1;" d="M 81.226562 21.046875 L 81.226562 22.632812 L 81.003906 22.632812 L 81.003906 22.476562 C 80.910156 22.570312 80.78125 22.664062 80.59375 22.664062 C 80.242188 22.664062 80.019531 22.347656 80.019531 22.0625 C 80.019531 21.777344 80.242188 21.457031 80.59375 21.457031 C 80.941406 21.457031 80.941406 21.554688 81.003906 21.648438 L 81.003906 21.046875 Z M 81.003906 22.0625 C 81.003906 21.839844 80.847656 21.648438 80.59375 21.648438 C 80.335938 21.648438 80.210938 21.839844 80.210938 22.0625 C 80.210938 22.285156 80.371094 22.476562 80.59375 22.476562 C 80.8125 22.476562 81.003906 22.285156 81.003906 22.0625 Z M 81.003906 22.0625 "/><path style="fill:none;stroke-width:0.2;stroke-linecap:butt;stroke-linejoin:miter;stroke:#1a3150;stroke-opacity:1;stroke-miterlimit:10;" d="M 52.897815 19.901818 L 52.897815 48.498545 " transform="matrix(0.317995,0,0,0.317726,29.108444,2.903228)"/><g style="fill:#1a3150;fill-opacity:1;"><g transform="translate(30.030629, 18.916644)"><path style="stroke:none" d="M 0.75 -0.46875 L 0.75 -0.078125 L 0.953125 -0.046875 L 0.953125 0 L 0.390625 0 L 0.390625 -0.046875 L 0.578125 -0.078125 L 0.578125 -0.46875 L 0.15625 -1.140625 L 0.015625 -1.15625 L 0.015625 -1.203125 L 0.53125 -1.203125 L 0.53125 -1.15625 L 0.375 -1.140625 L 0.71875 -0.578125 L 1.046875 -1.140625 L 0.890625 -1.15625 L 0.890625 -1.203125 L 1.28125 -1.203125 L 1.28125 -1.15625 L 1.15625 -1.140625 Z M 0.75 -0.46875 "/></g></g><g style="fill:#1a3150;fill-opacity:1;"><g transform="translate(31.350325, 18.916644)"><path style="stroke:none" d="M 0.046875 -0.046875 L 0.203125 -0.078125 L 0.203125 -1.140625 L 0.046875 -1.15625 L 0.046875 -1.203125 L 0.953125 -1.203125 L 0.953125 -0.921875 L 0.90625 -0.921875 L 0.875 -1.109375 C 0.800781 -1.117188 0.703125 -1.125 0.578125 -1.125 L 0.375 -1.125 L 0.375 -0.65625 L 0.703125 -0.65625 L 0.734375 -0.796875 L 0.796875 -0.796875 L 0.796875 -0.421875 L 0.734375 -0.421875 L 0.703125 -0.578125 L 0.375 -0.578125 L 0.375 -0.078125 L 0.625 -0.078125 C 0.78125 -0.078125 0.878906 -0.0820312 0.921875 -0.09375 L 0.96875 -0.3125 L 1.03125 -0.3125 L 1.015625 0 L 0.046875 0 Z M 0.046875 -0.046875 "/></g></g><g style="fill:#1a3150;fill-opacity:1;"><g transform="translate(32.466579, 18.916644)"><path style="stroke:none" d="M 0.421875 -0.046875 L 0.421875 0 L 0.015625 0 L 0.015625 -0.046875 L 0.15625 -0.078125 L 0.5625 -1.21875 L 0.734375 -1.21875 L 1.171875 -0.078125 L 1.3125 -0.046875 L 1.3125 0 L 0.8125 0 L 0.8125 -0.046875 L 0.96875 -0.078125 L 0.84375 -0.421875 L 0.375 -0.421875 L 0.25 -0.078125 Z M 0.609375 -1.09375 L 0.40625 -0.5 L 0.828125 -0.5 Z M 0.609375 -1.09375 "/></g></g><g style="fill:#1a3150;fill-opacity:1;"><g transform="translate(33.786274, 18.916644)"><path style="stroke:none" d="M 0.375 -0.53125 L 0.375 -0.078125 L 0.5625 -0.046875 L 0.5625 0 L 0.0625 0 L 0.0625 -0.046875 L 0.203125 -0.078125 L 0.203125 -1.140625 L 0.046875 -1.15625 L 0.046875 -1.203125 L 0.578125 -1.203125 C 0.722656 -1.203125 0.832031 -1.175781 0.90625 -1.125 C 0.976562 -1.070312 1.015625 -0.992188 1.015625 -0.890625 C 1.015625 -0.804688 0.992188 -0.734375 0.953125 -0.671875 C 0.910156 -0.617188 0.847656 -0.578125 0.765625 -0.546875 L 1.09375 -0.078125 L 1.234375 -0.046875 L 1.234375 0 L 0.9375 0 L 0.59375 -0.53125 Z M 0.84375 -0.875 C 0.84375 -0.96875 0.816406 -1.03125 0.765625 -1.0625 C 0.722656 -1.101562 0.644531 -1.125 0.53125 -1.125 L 0.375 -1.125 L 0.375 -0.609375 L 0.546875 -0.609375 C 0.648438 -0.609375 0.722656 -0.628906 0.765625 -0.671875 C 0.816406 -0.710938 0.84375 -0.78125 0.84375 -0.875 Z M 0.84375 -0.875 "/></g></g><g style="fill:#1a3150;fill-opacity:1;"><g transform="translate(35.005136, 18.916644)"><path style="stroke:none" d="M 0.125 -0.328125 L 0.1875 -0.328125 L 0.21875 -0.15625 C 0.238281 -0.132812 0.273438 -0.113281 0.328125 -0.09375 C 0.378906 -0.0703125 0.429688 -0.0625 0.484375 -0.0625 C 0.566406 -0.0625 0.632812 -0.0820312 0.6875 -0.125 C 0.738281 -0.164062 0.765625 -0.222656 0.765625 -0.296875 C 0.765625 -0.335938 0.753906 -0.375 0.734375 -0.40625 C 0.710938 -0.4375 0.6875 -0.457031 0.65625 -0.46875 C 0.625 -0.488281 0.585938 -0.503906 0.546875 -0.515625 C 0.515625 -0.535156 0.476562 -0.550781 0.4375 -0.5625 C 0.394531 -0.582031 0.351562 -0.597656 0.3125 -0.609375 C 0.28125 -0.628906 0.25 -0.648438 0.21875 -0.671875 C 0.1875 -0.703125 0.160156 -0.734375 0.140625 -0.765625 C 0.128906 -0.804688 0.125 -0.851562 0.125 -0.90625 C 0.125 -1.007812 0.160156 -1.085938 0.234375 -1.140625 C 0.304688 -1.191406 0.40625 -1.21875 0.53125 -1.21875 C 0.625 -1.21875 0.726562 -1.207031 0.84375 -1.1875 L 0.84375 -0.9375 L 0.796875 -0.9375 L 0.765625 -1.078125 C 0.703125 -1.117188 0.625 -1.140625 0.53125 -1.140625 C 0.445312 -1.140625 0.382812 -1.125 0.34375 -1.09375 C 0.300781 -1.0625 0.28125 -1.015625 0.28125 -0.953125 C 0.28125 -0.921875 0.285156 -0.890625 0.296875 -0.859375 C 0.316406 -0.835938 0.34375 -0.816406 0.375 -0.796875 C 0.40625 -0.773438 0.4375 -0.757812 0.46875 -0.75 C 0.507812 -0.738281 0.550781 -0.722656 0.59375 -0.703125 C 0.632812 -0.691406 0.671875 -0.675781 0.703125 -0.65625 C 0.742188 -0.644531 0.78125 -0.625 0.8125 -0.59375 C 0.84375 -0.5625 0.863281 -0.523438 0.875 -0.484375 C 0.894531 -0.453125 0.90625 -0.40625 0.90625 -0.34375 C 0.90625 -0.226562 0.867188 -0.140625 0.796875 -0.078125 C 0.734375 -0.015625 0.632812 0.015625 0.5 0.015625 C 0.425781 0.015625 0.359375 0.0078125 0.296875 0 C 0.234375 -0.0078125 0.175781 -0.0234375 0.125 -0.046875 Z M 0.125 -0.328125 "/></g></g><g clip-rule="nonzero" clip-path="url(#1399e70c87)"><g clip-rule="nonzero" clip-path="url(#cd9ff32892)"><path style=" stroke:none;fill-rule:nonzero;fill:url(#c3d62f67d4);" d="M 36.136719 12.054688 L 36.136719 15.390625 L 41.765625 15.390625 L 41.765625 12.054688 Z M 36.136719 12.054688 "/></g></g><g clip-rule="nonzero" clip-path="url(#5281f07811)"><g clip-rule="nonzero" clip-path="url(#9230a0f2cd)"><path style=" stroke:none;fill-rule:nonzero;fill:url(#2519dc2911);" d="M 30.03125 5.507812 L 30.03125 22.699219 L 42.496094 22.699219 L 42.496094 5.507812 Z M 30.03125 5.507812 "/></g></g><g clip-rule="nonzero" clip-path="url(#24833d6a39)"><g clip-rule="nonzero" clip-path="url(#0f5aea366d)"><path style=" stroke:none;fill-rule:nonzero;fill:url(#eb1f02cfe6);" d="M 34.039062 6.683594 L 34.039062 8.273438 L 35.628906 8.273438 L 35.628906 6.683594 Z M 34.039062 6.683594 "/></g></g><path style=" stroke:none;fill-rule:nonzero;fill:#1a3150;fill-opacity:1;" d="M 40.554688 20.570312 C 40.554688 20.789062 40.480469 20.976562 40.324219 21.128906 C 40.167969 21.285156 39.980469 21.363281 39.761719 21.363281 C 39.542969 21.363281 39.355469 21.285156 39.199219 21.128906 C 39.042969 20.976562 38.964844 20.789062 38.964844 20.570312 C 38.964844 20.347656 39.042969 20.164062 39.199219 20.007812 C 39.355469 19.851562 39.542969 19.773438 39.761719 19.773438 C 39.980469 19.773438 40.167969 19.851562 40.324219 20.007812 C 40.480469 20.164062 40.554688 20.347656 40.554688 20.570312 Z M 40.554688 20.570312 "/></g></svg>